<?xml version="1.0" encoding="UTF-8" standalone="no"?><!-- Generator: Gravit.io --><svg xmlns="http://www.w3.org/2000/svg" xmlns:xlink="http://www.w3.org/1999/xlink" style="isolation:isolate" viewBox="0 0 1255 705" width="1255pt" height="705pt"><g opacity="0.15"><linearGradient id="_lgradient_7" x1="0.5" y1="2.7755575615628914e-17" x2="0.49999999999999983" y2="0.9999999999999998" gradientTransform="matrix(673,0,0,295,61,399)" gradientUnits="userSpaceOnUse"><stop offset="35.21739130434783%" stop-opacity="1" style="stop-color:rgb(255,255,255)"/><stop offset="100%" stop-opacity="1" style="stop-color:rgb(217,77,72)"/></linearGradient><ellipse vector-effect="non-scaling-stroke" cx="397.5000000000001" cy="546.5000000000001" rx="336.5" ry="147.5" fill="url(#_lgradient_7)"/></g><linearGradient id="_lgradient_8" x1="0" y1="0.5" x2="1" y2="0.5" gradientTransform="matrix(95,0,0,82,695,588)" gradientUnits="userSpaceOnUse"><stop offset="0%" stop-opacity="1" style="stop-color:rgb(217,77,72)"/><stop offset="100%" stop-opacity="1" style="stop-color:rgb(255,255,255)"/></linearGradient><path d=" M 788 670 L 695 592 L 790 588 L 788 670 Z " fill="url(#_lgradient_8)"/><radialGradient id="_rgradient_1" fx="0.5" fy="0.5" cx="0.5" cy="0.5" r="0.5" gradientTransform="matrix(271,0,0,160,265,297)" gradientUnits="userSpaceOnUse"><stop offset="13.91304347826087%" stop-opacity="1" style="stop-color:rgb(255,255,255)"/><stop offset="100%" stop-opacity="1" style="stop-color:rgb(186,204,237)"/></radialGradient><path d=" M 395 397 L 533 457 L 474 380 L 536 300 L 405 357 L 268 297 L 326 373 L 265 454 L 395 397 Z " fill="url(#_rgradient_1)"/><linearGradient id="_lgradient_9" x1="0" y1="0.5" x2="1" y2="0.5" gradientTransform="matrix(432,0,0,421,602,155)" gradientUnits="userSpaceOnUse"><stop offset="0%" stop-opacity="1" style="stop-color:rgb(186,204,237)"/><stop offset="100%" stop-opacity="1" style="stop-color:rgb(255,255,255)"/></linearGradient><polygon points="1034,155,1034,576,602,365.5" fill="url(#_lgradient_9)"/><g style="isolation:isolate"><path d=" M 126 145 C 110.237 158.778 98.238 172.279 90.001 185.5 C 45.319 257.222 128.5 352 288 376" fill="none" vector-effect="non-scaling-stroke" stroke-width="6" stroke="rgb(186,207,247)" stroke-linejoin="miter" stroke-linecap="butt" stroke-miterlimit="3"/><path d=" M 120.067 166.479 L 130.422 141.126 L 103.927 148.054 Z " fill="rgb(186,207,247)" stroke="none"/><path d=" M 268.206 385.314 L 294.293 376.979 L 271.973 361.111 Z " fill="rgb(186,207,247)" stroke="none"/><path d=" M 260 86 C 364.106 64.316 450.782 64.326 520 86" fill="none" vector-effect="non-scaling-stroke" stroke-width="6" stroke="rgb(186,207,247)" stroke-linejoin="miter" stroke-linecap="butt" stroke-miterlimit="3"/><path d=" M 275.754 70.24 L 254.243 87.189 L 280.709 94.229 Z " fill="rgb(186,207,247)" stroke="none"/><path d=" M 499.065 92.346 L 526.084 87.881 L 506.301 68.944 Z " fill="rgb(186,207,247)" stroke="none"/><path d=" M 684.5 145 C 700.263 158.778 712.262 172.279 720.499 185.5 C 765.18 257.222 682 352 522.5 376" fill="none" vector-effect="non-scaling-stroke" stroke-width="6" stroke="rgb(186,207,247)" stroke-linejoin="miter" stroke-linecap="butt" stroke-miterlimit="3"/><path d=" M 706.573 148.054 L 680.078 141.126 L 690.433 166.479 Z " fill="rgb(186,207,247)" stroke="none"/><path d=" M 538.527 361.111 L 516.207 376.979 L 542.294 385.314 Z " fill="rgb(186,207,247)" stroke="none"/></g><g style="isolation:isolate"><path d=" M 187 488 C 333.011 576.439 471.505 576.489 602.333 488" fill="none" vector-effect="non-scaling-stroke" stroke-width="4" stroke="rgb(141,136,180)" stroke-linejoin="miter" stroke-linecap="butt" stroke-miterlimit="3"/><path d=" M 205.179 487.245 L 182.884 485.531 L 194.889 504.395 Z " fill="rgb(141,136,180)" stroke="none"/><path d=" M 595.595 504.542 L 606.655 485.108 L 584.472 487.92 Z " fill="rgb(141,136,180)" stroke="none"/><path d=" M 174 242 C 105.289 308.794 94.299 377.471 141 448" fill="none" vector-effect="non-scaling-stroke" stroke-width="4" stroke="rgb(141,136,180)" stroke-linejoin="miter" stroke-linecap="butt" stroke-miterlimit="3"/><path d=" M 170.149 259.782 L 177.427 238.639 L 156.146 245.502 Z " fill="rgb(141,136,180)" stroke="none"/><path d=" M 124.53 441.089 L 143.847 452.352 L 141.267 430.14 Z " fill="rgb(141,136,180)" stroke="none"/><path d=" M 256 202 C 377.359 164.575 472.369 163.585 541 199" fill="none" vector-effect="non-scaling-stroke" stroke-width="4" stroke="rgb(141,136,180)" stroke-linejoin="miter" stroke-linecap="butt" stroke-miterlimit="3"/><path d=" M 267.608 187.99 L 251.41 203.405 L 273.461 207.114 Z " fill="rgb(141,136,180)" stroke="none"/><path d=" M 523.275 201.202 L 545.635 201.358 L 532.344 183.376 Z " fill="rgb(141,136,180)" stroke="none"/><path d=" M 660 280 C 692.667 335.333 691.01 391.677 655 449" fill="none" vector-effect="non-scaling-stroke" stroke-width="4" stroke="rgb(141,136,180)" stroke-linejoin="miter" stroke-linecap="butt" stroke-miterlimit="3"/><path d=" M 676.301 288.082 L 657.579 275.855 L 659.031 298.169 Z " fill="rgb(141,136,180)" stroke="none"/><path d=" M 654.329 431.151 L 652.253 453.415 L 671.31 441.718 Z " fill="rgb(141,136,180)" stroke="none"/></g></svg>