<?xml version="1.0" encoding="UTF-8" standalone="no"?>
<!DOCTYPE svg PUBLIC "-//W3C//DTD SVG 20010904//EN"
              "http://www.w3.org/TR/2001/REC-SVG-20010904/DTD/svg10.dtd">

<svg xmlns="http://www.w3.org/2000/svg"
     width="1.77778in" height="1.77778in"
     viewBox="0 0 128 128">
  <path id="Unnamed"
        fill="none" stroke="black" stroke-width="1"
        d="M 64.55,22.73
           C 64.55,22.73 61.09,23.82 61.09,23.82
             61.09,23.82 56.91,27.82 56.91,27.82
             56.91,27.82 55.82,32.91 55.82,32.91
             55.82,32.91 57.82,38.55 57.82,38.55
             57.82,38.55 62.36,41.82 62.36,41.82
             62.36,41.82 61.64,44.36 61.64,44.36
             61.64,44.36 55.64,44.91 55.64,44.91
             55.64,44.91 43.64,76.36 43.45,76.18
             43.45,76.18 45.27,79.64 45.09,79.64
             44.91,79.64 49.09,79.27 49.09,79.27
             49.09,79.27 54.91,63.45 54.91,63.45
             54.91,63.45 54.91,113.09 54.91,113.09
             54.91,113.09 57.09,115.64 57.09,115.64
             57.09,115.64 59.82,115.64 59.82,115.64
             59.82,115.64 61.82,112.91 61.82,112.91
             61.82,112.91 62.18,83.64 62.18,83.64
             62.18,83.64 69.09,83.45 69.09,83.45
             69.09,83.45 68.91,112.73 68.91,112.73
             68.91,112.73 70.73,115.27 70.91,115.27
             71.09,115.27 74.00,115.45 74.00,115.45
             74.00,115.45 76.00,112.55 76.00,112.55
             76.00,112.55 75.64,64.18 75.64,64.18
             75.64,64.18 81.27,79.27 81.27,79.27
             81.27,79.27 85.82,79.64 85.45,79.82
             85.09,80.00 87.64,76.91 87.64,76.91
             87.64,76.91 74.18,44.73 74.18,44.73
             74.18,44.73 67.64,44.55 67.64,44.55
             67.64,44.55 66.73,41.64 66.73,41.64
             66.73,41.64 71.45,38.36 71.45,38.36
             71.45,38.36 73.64,32.91 73.64,32.91
             73.64,32.91 71.64,27.45 71.64,27.45
             71.64,27.45 68.36,23.82 68.36,23.82
             68.36,23.82 64.55,22.73 64.55,22.73 Z" />
</svg>
