<?xml version="1.0" encoding="UTF-8" standalone="no"?><!-- Generator: Gravit.io --><svg xmlns="http://www.w3.org/2000/svg" xmlns:xlink="http://www.w3.org/1999/xlink" style="isolation:isolate" viewBox="527.16 385.42 370.68 342.65" width="370.68pt" height="342.65pt"><line x1="595" y1="683" x2="830" y2="645" vector-effect="non-scaling-stroke" stroke-width="30" stroke="rgb(87,87,213)" stroke-linejoin="miter" stroke-linecap="butt" stroke-miterlimit="3"/><path d=" M 591.719 659.774 L 549.16 690.412 L 599.207 706.076 Z " fill="rgb(87,87,213)" stroke="none"/><path d=" M 833.281 668.226 L 875.84 637.588 L 825.793 621.924 Z " fill="rgb(87,87,213)" stroke="none"/><path d=" M 722 616 Q 762.5 519 736 437" fill="none" vector-effect="non-scaling-stroke" stroke-width="10" stroke="rgb(199,50,136)" stroke-linejoin="miter" stroke-linecap="square" stroke-miterlimit="3"/><path d=" M 753.582 427.082 L 722.746 395.424 L 715.921 439.088 Z " fill="rgb(199,50,136)" stroke="none"/><path d=" M 664.562 682.896 C 664.888 685.33 665.354 687.745 665.96 690.13 C 667.19 695 669.12 699.67 671.69 704 C 674.14 708.13 677.3 711.79 681.04 714.83 C 684.76 717.84 689.07 720.03 693.69 721.28 L 693.69 721.28 C 696.57 722.05 699.53 722.44 702.51 722.44 C 705.16 722.44 707.81 722.14 710.4 721.55 C 713 720.96 715.55 720.11 717.99 719.02 C 720.49 717.9 722.88 716.56 725.14 715.02 C 727.47 713.42 729.68 711.65 731.73 709.7 C 736.06 705.58 739.78 700.86 742.77 695.69 C 746 690.12 748.48 684.15 750.13 677.92 C 751.78 671.83 752.62 665.54 752.64 659.22 C 752.66 653.86 752 648.51 750.67 643.31 C 749.45 638.44 747.52 633.77 744.94 629.45 C 742.5 625.31 739.33 621.65 735.61 618.62 C 731.88 615.61 727.57 613.41 722.94 612.16 C 720.07 611.39 717.1 611 714.13 611 C 711.47 611 708.83 611.3 706.24 611.89 C 703.63 612.48 701.09 613.33 698.65 614.42 C 696.15 615.54 693.76 616.88 691.5 618.43 C 689.16 620.02 686.96 621.79 684.9 623.74 C 680.58 627.86 676.86 632.58 673.87 637.76 C 670.63 643.32 668.16 649.3 666.51 655.52 C 666.066 657.16 665.68 658.815 665.353 660.479 L 675.988 658.759 C 676.044 658.543 676.102 658.326 676.16 658.11 C 677.59 652.73 679.73 647.58 682.52 642.77 C 685.03 638.42 688.15 634.45 691.79 630.99 C 693.45 629.42 695.24 627.98 697.13 626.69 C 698.9 625.48 700.78 624.43 702.74 623.55 C 704.57 622.72 706.49 622.09 708.45 621.64 C 710.32 621.22 712.22 621 714.14 621 C 716.23 621 718.32 621.27 720.34 621.81 C 723.62 622.7 726.67 624.26 729.31 626.39 C 732.12 628.67 734.5 631.44 736.35 634.55 C 738.43 638.05 739.99 641.83 740.98 645.77 C 742.1 650.15 742.65 654.66 742.64 659.19 C 742.62 664.64 741.9 670.07 740.47 675.34 C 739.05 680.71 736.91 685.87 734.12 690.67 C 731.6 695.02 728.48 698.99 724.85 702.45 C 723.18 704.03 721.4 705.47 719.5 706.76 C 717.73 707.97 715.85 709.02 713.9 709.89 C 712.06 710.72 710.15 711.36 708.19 711.8 C 706.32 712.22 704.41 712.44 702.5 712.44 C 700.4 712.44 698.32 712.17 696.29 711.63 L 696.29 711.63 C 693.01 710.74 689.96 709.18 687.31 707.05 C 684.51 704.77 682.13 702 680.29 698.89 C 678.21 695.4 676.65 691.62 675.66 687.67 C 675.124 685.572 674.716 683.445 674.438 681.299 L 664.562 682.896 Z " fill="rgb(199,50,136)"/></svg>
