<?xml version="1.0" encoding="UTF-8" standalone="no"?>
<svg width="214px" height="89px" viewBox="0 0 214 89" version="1.1" xmlns="http://www.w3.org/2000/svg" xmlns:xlink="http://www.w3.org/1999/xlink">
    <!-- Generator: Sketch 3.8.2 (29753) - http://www.bohemiancoding.com/sketch -->
    <title>NU - Logo - Business School - Positive (RGB)</title>
    <desc>Created with Sketch.</desc>
    <defs></defs>
    <g id="Page-1" stroke="none" stroke-width="1" fill="none" fill-rule="evenodd">
        <g id="NU---Logo---Business-School---Positive-(RGB)">
            <g id="Group" fill="#003A65">
                <g transform="translate(62.374408, 0.000000)" id="Shape">
                    <path d="M32.7592417,23.2255924 C27.7388626,23.2255924 24.4933649,19.6758294 24.4933649,14.3511848 C24.4933649,9.17867299 27.9924171,5.42606635 33.0127962,5.42606635 C37.7796209,5.42606635 40.771564,8.82369668 40.771564,14.4526066 L40.771564,15.1625592 L29.5137441,15.1625592 C29.5137441,18.1037915 30.7815166,19.7265403 33.0127962,19.7265403 C34.5848341,19.7265403 35.7511848,18.8137441 36.2075829,17.1909953 L40.7208531,17.5966825 C39.6052133,21.1971564 36.7146919,23.2255924 32.7592417,23.2255924 L32.7592417,23.2255924 Z M35.9033175,12.4241706 C35.8526066,9.99004739 34.7369668,8.67156398 32.7085308,8.67156398 C30.8829384,8.67156398 29.6658768,10.0407583 29.5137441,12.4241706 L35.9033175,12.4241706 L35.9033175,12.4241706 Z"></path>
                    <path d="M143.511848,23.2255924 C138.491469,23.2255924 135.245972,19.6758294 135.245972,14.3511848 C135.245972,9.17867299 138.745024,5.42606635 143.765403,5.42606635 C148.532227,5.42606635 151.524171,8.82369668 151.524171,14.4526066 L151.524171,15.1625592 L140.266351,15.1625592 C140.266351,18.1037915 141.534123,19.7265403 143.765403,19.7265403 C145.337441,19.7265403 146.503791,18.8137441 146.96019,17.1909953 L151.47346,17.5966825 C150.307109,21.1971564 147.467299,23.2255924 143.511848,23.2255924 L143.511848,23.2255924 Z M146.605213,12.4241706 C146.554502,9.99004739 145.438863,8.67156398 143.410427,8.67156398 C141.584834,8.67156398 140.367773,10.0407583 140.21564,12.4241706 L146.605213,12.4241706 L146.605213,12.4241706 Z"></path>
                    <polygon points="41.2279621 5.88246445 46.5018957 5.88246445 48.936019 15.77109 51.2687204 5.88246445 55.6298578 5.88246445 58.063981 15.9232227 61.0052133 5.88246445 64.9606635 5.88246445 60.0924171 22.7184834 55.6805687 22.7184834 52.8914692 11.7649289 50.1023697 22.7184834 46.0454976 22.7184834"></polygon>
                    <path d="M73.885782,8.87440758 C71.7559242,8.87440758 70.2853081,10.7 70.2345972,14.3004739 C70.1838863,17.9009479 71.6545024,19.7772512 73.7336493,19.7772512 C75.3563981,19.7772512 76.8777251,18.5094787 77.1819905,16.32891 L81.3909953,16.836019 C80.8331754,20.7407583 77.7398104,23.2255924 73.4293839,23.2255924 C68.4597156,23.2255924 65.0113744,19.6758294 65.0620853,14.3511848 C65.1635071,8.97582938 68.763981,5.42606635 74.0886256,5.42606635 C78.1454976,5.42606635 80.9345972,7.80947867 81.3909953,11.8156398 L77.0298578,12.2720379 C76.7763033,10.0914692 75.3563981,8.87440758 73.885782,8.87440758 L73.885782,8.87440758 Z"></path>
                    <path d="M93.7137441,20.0308057 C92.6488152,22.0592417 90.7725118,23.1748815 88.4398104,23.1748815 C84.9407583,23.1748815 82.8616114,21.1464455 82.8616114,18.0023697 C82.8616114,14.0469194 86.4620853,11.9170616 93.6630332,11.8663507 L93.6630332,11.1563981 C93.6630332,9.43222749 92.750237,8.57014218 90.9753555,8.57014218 C88.9976303,8.57014218 87.8819905,9.38151659 87.628436,10.9535545 L83.2672986,10.4464455 C84.0279621,7.15023697 86.7156398,5.42606635 91.22891,5.42606635 C96.3,5.42606635 98.2270142,7.40379147 98.2270142,12.0184834 L98.2270142,19.4729858 C98.2270142,20.8421801 98.328436,21.907109 98.6834123,22.7184834 L94.0687204,22.7184834 C93.8658768,21.9578199 93.764455,21.0450237 93.7137441,20.0308057 L93.7137441,20.0308057 Z M87.7298578,17.7488152 C87.7298578,19.1180095 88.5919431,19.9293839 90.163981,19.9293839 C92.1417062,19.9293839 93.6123223,18.3066351 93.6123223,15.9739336 L93.6123223,14.4526066 C89.7582938,14.5540284 87.7298578,15.7203791 87.7298578,17.7488152 L87.7298578,17.7488152 Z"></path>
                    <path d="M104.008057,17.4952607 C104.413744,19.0165877 105.833649,19.9293839 107.912796,19.9293839 C109.687678,19.9293839 110.701896,19.1180095 110.701896,18.1037915 C110.701896,16.6331754 109.281991,16.6838863 106.797156,16.1767773 C102.790995,15.3654028 100.81327,13.9962085 100.81327,10.9535545 C100.81327,7.80947867 103.348815,5.42606635 107.608531,5.42606635 C111.056872,5.42606635 113.389573,6.94739336 114.403791,9.83791469 L110.651185,10.5478673 C110.093365,9.17867299 109.079147,8.67156398 107.456398,8.67156398 C105.88436,8.67156398 105.072986,9.28009479 105.072986,10.3450237 C105.072986,11.8156398 106.695735,11.7649289 109.687678,12.4241706 C113.338863,13.1848341 115.113744,14.5033175 115.113744,17.4952607 C115.113744,20.7914692 112.324645,23.1748815 107.55782,23.1748815 C103.703791,23.1748815 100.965403,21.2478673 100.154028,18.1037915 L104.008057,17.4952607 L104.008057,17.4952607 Z"></path>
                    <polygon points="128.247867 0 133.065403 0 133.065403 22.7691943 128.247867 22.7691943"></polygon>
                    <path d="M29.7165877,36.4611374 C30.4265403,35.2947867 31.2379147,34.4327014 32.2014218,33.8241706 C33.1649289,33.2663507 34.2298578,32.9620853 35.3962085,32.9620853 C36.4104265,32.9620853 37.2725118,33.1649289 37.9824645,33.5706161 C38.6924171,33.9763033 39.250237,34.635545 39.6559242,35.4976303 C40.0616114,36.3597156 40.264455,37.3739336 40.264455,38.4388626 L40.264455,46.1469194 C40.264455,46.7047393 40.4165877,47.1104265 40.6701422,47.363981 C40.9236967,47.6175355 41.3293839,47.7189573 41.9379147,47.7189573 L43.0535545,47.7189573 L43.0535545,48.936019 L34.8383886,48.936019 L34.8383886,47.7189573 L35.5990521,47.7189573 C36.3090047,47.7189573 36.8161137,47.6175355 37.1203791,47.363981 C37.4246445,47.1104265 37.5767773,46.8061611 37.5767773,46.2990521 L37.5767773,39.6052133 C37.5767773,38.1345972 37.3739336,37.0696682 36.9175355,36.3597156 C36.3090047,35.3454976 35.3454976,34.8383886 34.128436,34.8383886 C32.9113744,34.8383886 31.8464455,35.3454976 31.0350711,36.3597156 C30.2236967,37.3739336 29.7672986,38.6924171 29.7672986,40.3151659 L29.7672986,46.1469194 C29.7672986,46.7047393 29.9194313,47.1104265 30.1729858,47.363981 C30.4265403,47.6175355 30.8829384,47.7189573 31.4407583,47.7189573 L32.5056872,47.7189573 L32.5056872,48.936019 L24.1383886,48.936019 L24.1383886,47.7189573 L25.2033175,47.7189573 C25.7611374,47.7189573 26.1668246,47.6175355 26.4203791,47.363981 C26.7246445,47.1611374 26.8260664,46.856872 26.8260664,46.5018957 L26.8260664,36.3597156 C26.8260664,35.7004739 26.6232227,35.1933649 26.2682464,34.8383886 C25.9132701,34.4834123 25.4061611,34.3312796 24.6962085,34.3312796 L23.8848341,34.3312796 L23.8848341,33.2156398 L29.4630332,32.9620853 L29.7165877,36.4611374 L29.7165877,36.4611374 Z"></path>
                    <path d="M43.3578199,33.3170616 L49.6459716,33.114218 L49.6459716,46.6033175 C49.6459716,46.9582938 49.7473934,47.2118483 49.8995261,47.363981 C50.1530806,47.5668246 50.457346,47.7189573 50.8630332,47.7189573 L52.6379147,47.7189573 L52.6379147,48.936019 L43.6620853,48.936019 L43.6620853,47.7189573 L45.335545,47.7189573 C45.842654,47.7189573 46.1976303,47.6175355 46.4004739,47.363981 C46.6033175,47.1104265 46.7554502,46.7554502 46.7554502,46.2990521 L46.7554502,36.4104265 C46.7554502,35.8018957 46.5526066,35.2947867 46.1976303,34.9905213 C45.842654,34.6862559 45.2848341,34.5341232 44.6255924,34.5341232 L43.307109,34.5341232 L43.307109,33.3170616 L43.3578199,33.3170616 Z M47.7696682,26.7753555 C48.2767773,26.7753555 48.7331754,26.9781991 49.0881517,27.3331754 C49.443128,27.6881517 49.6459716,28.1445498 49.6459716,28.6516588 C49.6459716,29.1587678 49.443128,29.564455 49.0881517,29.9701422 C48.7331754,30.3251185 48.2767773,30.5279621 47.7696682,30.5279621 C47.2625592,30.5279621 46.8061611,30.3251185 46.4511848,29.9701422 C46.0962085,29.6151659 45.8933649,29.1587678 45.8933649,28.6516588 C45.8933649,28.1445498 46.0962085,27.6881517 46.4511848,27.3331754 C46.856872,26.9274882 47.2625592,26.7753555 47.7696682,26.7753555 L47.7696682,26.7753555 Z"></path>
                    <path d="M112.781043,33.3170616 L119.069194,33.114218 L119.069194,46.6033175 C119.069194,46.9582938 119.170616,47.2118483 119.322749,47.363981 C119.576303,47.5668246 119.880569,47.7189573 120.286256,47.7189573 L122.061137,47.7189573 L122.061137,48.936019 L113.085308,48.936019 L113.085308,47.7189573 L114.758768,47.7189573 C115.265877,47.7189573 115.620853,47.6175355 115.823697,47.363981 C116.077251,47.1104265 116.178673,46.7554502 116.178673,46.2990521 L116.178673,36.4104265 C116.178673,35.8018957 115.975829,35.2947867 115.620853,34.9905213 C115.265877,34.6862559 114.708057,34.5341232 113.998104,34.5341232 L112.730332,34.5341232 L112.730332,33.3170616 L112.781043,33.3170616 Z M117.192891,26.7753555 C117.7,26.7753555 118.156398,26.9781991 118.511374,27.3331754 C118.917062,27.6881517 119.069194,28.1445498 119.069194,28.6516588 C119.069194,29.1587678 118.866351,29.564455 118.511374,29.9701422 C118.156398,30.3251185 117.7,30.5279621 117.192891,30.5279621 C116.685782,30.5279621 116.229384,30.3251185 115.874408,29.9701422 C115.519431,29.6151659 115.316588,29.1587678 115.316588,28.6516588 C115.316588,28.1445498 115.519431,27.6881517 115.874408,27.3331754 C116.280095,26.9274882 116.685782,26.7753555 117.192891,26.7753555 L117.192891,26.7753555 Z"></path>
                    <path d="M51.5729858,33.2663507 L59.3317536,33.2663507 L59.3317536,34.4327014 C58.3175355,34.4327014 57.6582938,34.5341232 57.3540284,34.6862559 C57.049763,34.8383886 56.9483412,35.0919431 56.9483412,35.3962085 C56.9483412,35.649763 56.9990521,35.9033175 57.1004739,36.1061611 L61.2587678,45.3862559 L65.0620853,36.4104265 C65.1127962,36.2582938 65.1635071,36.1061611 65.1635071,35.9540284 C65.1635071,35.142654 64.3521327,34.635545 62.7293839,34.4327014 L62.7293839,33.2663507 L69.2203791,33.2663507 L69.2203791,34.4327014 C68.5611374,34.4834123 68.0540284,34.6862559 67.6483412,34.9398104 C67.242654,35.2440758 66.9383886,35.5990521 66.735545,36.1061611 L60.9545024,49.443128 L60.0417062,49.443128 L53.9056872,35.7511848 C53.7028436,35.2440758 53.3985782,34.9398104 53.0943128,34.7369668 C52.7900474,34.5341232 52.2829384,34.4327014 51.5729858,34.4327014 L51.5729858,33.2663507 L51.5729858,33.2663507 Z"></path>
                    <path d="M83.064455,41.2279621 L71.7559242,41.2279621 C71.8066351,43.6113744 72.2630332,45.2848341 73.1251185,46.2990521 C74.0886256,47.4146919 75.3056872,47.9725118 76.8270142,47.9725118 C79.0582938,47.9725118 80.8331754,46.7554502 82.1516588,44.2706161 L83.2165877,44.7270142 C81.5938389,47.87109 79.2104265,49.4938389 76.1170616,49.4938389 C74.0379147,49.4938389 72.2630332,48.7331754 70.7924171,47.2118483 C69.3725118,45.6905213 68.6625592,43.7635071 68.6625592,41.3800948 C68.6625592,38.8445498 69.3725118,36.7654028 70.7924171,35.1933649 C72.2123223,33.621327 73.9364929,32.8606635 76.0156398,32.8606635 C77.5369668,32.8606635 78.8554502,33.2663507 79.97109,34.0270142 C81.0867299,34.7876777 81.8981043,35.9540284 82.4559242,37.3739336 C82.8109005,38.3374408 83.0137441,39.6559242 83.064455,41.2279621 L83.064455,41.2279621 Z M71.7559242,40.0616114 L78.7033175,40.0616114 C79.1090047,40.0616114 79.4132701,39.9094787 79.6668246,39.6559242 C79.9203791,39.4023697 80.0218009,38.8952607 80.0218009,38.236019 C80.0218009,37.0189573 79.6161137,35.9540284 78.8554502,35.0919431 C78.0947867,34.2298578 77.1819905,33.8241706 76.1170616,33.8241706 C74.9507109,33.8241706 73.9364929,34.3312796 73.1251185,35.3962085 C72.2123223,36.4104265 71.7559242,37.9824645 71.7559242,40.0616114 L71.7559242,40.0616114 Z"></path>
                    <path d="M99.7483412,43.1549763 C100.458294,45.0819905 101.218957,46.4511848 102.131754,47.1611374 C103.04455,47.9218009 104.16019,48.2767773 105.478673,48.2767773 C106.695735,48.2767773 107.659242,48.0232227 108.318483,47.4654028 C108.977725,46.9075829 109.281991,46.2483412 109.281991,45.4369668 C109.281991,44.9805687 109.180569,44.5748815 108.927014,44.2199052 C108.67346,43.8649289 108.369194,43.6113744 107.912796,43.4085308 C107.507109,43.2563981 106.391469,43.0028436 104.616588,42.6478673 C102.892417,42.292891 101.726066,41.9379147 101.066825,41.5829384 C100.407583,41.2279621 99.9004739,40.7208531 99.4947867,40.0616114 C99.1398104,39.4023697 98.9369668,38.6924171 98.9369668,37.9317536 C98.9369668,36.7654028 99.342654,35.7511848 100.103318,34.7876777 C101.117536,33.5706161 102.48673,33.0127962 104.261611,33.0127962 C105.630806,33.0127962 106.898578,33.4691943 108.014218,34.3312796 L109.129858,33.1649289 L109.7891,33.1649289 L110.245498,38.7938389 L109.129858,38.7938389 C108.622749,37.17109 107.963507,36.0047393 107.152133,35.2947867 C106.290047,34.5848341 105.275829,34.2298578 104.058768,34.2298578 C102.993839,34.2298578 102.182464,34.4834123 101.573934,35.0412322 C100.965403,35.5483412 100.661137,36.2075829 100.661137,36.9682464 C100.661137,37.6274882 100.914692,38.1853081 101.472512,38.6417062 C102.030332,39.0981043 103.095261,39.4530806 104.718009,39.7066351 C106.594313,40.0109005 107.811374,40.264455 108.369194,40.5180095 C109.281991,40.8729858 109.991943,41.3800948 110.499052,42.0393365 C111.006161,42.7492891 111.259716,43.5606635 111.259716,44.5748815 C111.259716,45.9440758 110.701896,47.1104265 109.636967,48.0739336 C108.521327,49.0374408 107.152133,49.4938389 105.478673,49.4938389 C103.906635,49.4938389 102.48673,48.9867299 101.168246,47.9725118 L99.9511848,49.3417062 L99.0383886,49.3417062 L98.6834123,43.1549763 L99.7483412,43.1549763 L99.7483412,43.1549763 Z"></path>
                    <path d="M133.673934,33.2663507 L141.229858,33.2663507 L141.229858,34.4327014 L140.519905,34.4327014 C139.860664,34.4327014 139.404265,34.5341232 139.150711,34.6862559 C138.897156,34.8383886 138.795735,35.0919431 138.795735,35.3962085 C138.795735,35.5483412 138.846445,35.7004739 138.897156,35.8018957 L143.309005,45.1834123 L146.605213,37.3739336 C146.858768,36.8161137 146.96019,36.2582938 146.96019,35.7511848 C146.96019,35.3454976 146.808057,35.0412322 146.453081,34.7876777 C146.148815,34.5848341 145.489573,34.4327014 144.526066,34.3312796 L144.526066,33.1649289 L151.017062,33.1649289 L151.017062,34.3312796 C149.8,34.4327014 148.937915,34.9905213 148.532227,36.0047393 L142.649763,49.5445498 C141.635545,51.8265403 140.621327,53.3985782 139.65782,54.2606635 C138.643602,55.1227488 137.578673,55.528436 136.412322,55.528436 C135.550237,55.528436 134.890995,55.2748815 134.383886,54.8184834 C133.876777,54.3620853 133.623223,53.8042654 133.623223,53.1450237 C133.623223,52.6379147 133.775355,52.2322275 134.079621,51.9279621 C134.383886,51.6236967 134.789573,51.4208531 135.245972,51.4208531 C135.651659,51.4208531 136.006635,51.5729858 136.3109,51.8265403 C136.615166,52.0800948 136.767299,52.4350711 136.767299,52.8407583 C136.767299,52.9421801 136.767299,53.1450237 136.716588,53.3478673 C136.665877,53.5 136.665877,53.6521327 136.665877,53.7028436 C136.665877,53.9563981 136.818009,54.1085308 137.172986,54.1085308 C137.527962,54.1085308 137.98436,53.9563981 138.440758,53.7028436 C138.897156,53.4492891 139.353555,53.0436019 139.759242,52.4350711 C140.164929,51.8265403 140.874882,50.5587678 141.8891,48.4796209 L135.955924,35.7511848 C135.753081,35.2947867 135.499526,34.9905213 135.14455,34.7876777 C134.840284,34.5848341 134.333175,34.4327014 133.724645,34.3312796 L133.724645,33.2663507 L133.673934,33.2663507 Z"></path>
                    <polygon points="2.83981043 0 9.02654028 0 17.6473934 14.0469194 17.6473934 0 22.4649289 0 22.4649289 22.7691943 17.343128 22.7691943 7.70805687 6.94739336 7.70805687 22.7691943 2.89052133 22.7691943 2.89052133 0"></polygon>
                    <path d="M0,26.1668246 L10.2943128,26.1668246 L10.2943128,27.3838863 L8.57014218,27.3838863 C7.96161137,27.3838863 7.55592417,27.4853081 7.30236967,27.6881517 C7.04881517,27.8909953 6.94739336,28.1952607 6.94739336,28.6009479 L6.94739336,41.0758294 C6.94739336,42.5464455 7.09952607,43.6620853 7.35308057,44.3720379 C7.70805687,45.4876777 8.41800948,46.349763 9.43222749,47.0090047 C10.4464455,47.6682464 11.7649289,47.9725118 13.3876777,47.9725118 C15.6189573,47.9725118 17.343128,47.4146919 18.5094787,46.2483412 C19.6758294,45.0819905 20.2843602,43.5099526 20.2843602,41.5829384 L20.2843602,31.7450237 C20.2843602,30.7308057 20.2336493,29.9701422 20.0815166,29.4630332 C19.9293839,28.9559242 19.7265403,28.550237 19.4729858,28.2459716 C19.2194313,27.9417062 18.864455,27.7388626 18.4587678,27.5867299 C18.0530806,27.4345972 17.3938389,27.3838863 16.4303318,27.3838863 L16.4303318,26.1668246 L25.8625592,26.1668246 L25.8625592,27.3838863 L25.2033175,27.3838863 C24.1383886,27.3838863 23.3777251,27.6881517 22.8706161,28.2459716 C22.3635071,28.8037915 22.1099526,29.6151659 22.1099526,30.6800948 L22.1099526,41.3293839 C22.1099526,43.9663507 21.3492891,46.0454976 19.8279621,47.4654028 C18.1037915,49.0374408 15.8218009,49.8488152 13.0327014,49.8488152 C10.5985782,49.8488152 8.62085308,49.4938389 7.25165877,48.7838863 C5.83175355,48.0739336 4.81753555,47.0597156 4.20900474,45.7919431 C3.70189573,44.7777251 3.49905213,43.5606635 3.49905213,42.0393365 L3.49905213,28.6009479 C3.49905213,28.2459716 3.34691943,27.9417062 3.09336493,27.6881517 C2.83981043,27.4853081 2.43412322,27.3838863 1.92701422,27.3838863 L0,27.3838863 L0,26.1668246 L0,26.1668246 Z"></path>
                    <path d="M126.067299,19.2701422 C125.509479,19.371564 125.053081,19.4222749 124.596682,19.4222749 C122.923223,19.4222749 122.568246,18.6616114 122.568246,16.7853081 L122.568246,9.22938389 L126.067299,9.22938389 L126.067299,5.93317536 L122.568246,5.93317536 L122.568246,1.01421801 L117.7,1.92701422 L117.7,5.93317536 L115.519431,5.93317536 L115.519431,9.22938389 L117.7,9.22938389 L117.7,17.343128 C117.7,21.4507109 119.272038,23.2763033 123.227488,23.2763033 C124.140284,23.2763033 125.103791,23.1748815 126.067299,22.9720379 L126.067299,19.2701422 L126.067299,19.2701422 Z"></path>
                    <path d="M132.659716,43.0028436 C132.558294,44.6763033 132.254028,45.842654 131.696209,46.5526066 C131.138389,47.2625592 130.529858,47.6175355 129.769194,47.6175355 C129.109953,47.6175355 128.602844,47.363981 128.197156,46.9075829 C127.791469,46.4511848 127.588626,45.7412322 127.588626,44.8791469 L127.588626,34.635545 L132.507583,34.635545 L132.507583,33.2663507 L127.588626,33.2663507 L127.588626,26.7246445 L126.422275,26.7246445 C126.320853,28.9052133 125.763033,30.6293839 124.799526,31.8464455 C124.140284,32.7085308 123.126066,33.2156398 121.858294,33.4184834 L121.858294,34.5848341 L124.647393,34.5848341 L124.647393,45.335545 C124.647393,46.5018957 125.00237,47.4654028 125.763033,48.1753555 C126.523697,48.8853081 127.537915,49.2402844 128.856398,49.2402844 C130.276303,49.2402844 131.442654,48.7331754 132.35545,47.7189573 C133.268246,46.7047393 133.724645,45.1327014 133.775355,43.0028436 L132.659716,43.0028436 L132.659716,43.0028436 Z"></path>
                    <path d="M95.6407583,32.7085308 C92.9023697,32.7085308 90.5696682,35.9033175 89.656872,39.5037915 L89.656872,33.0127962 L83.9772512,33.2663507 L83.9772512,34.4834123 L85.3464455,34.4834123 C85.9549763,34.4834123 86.4113744,34.635545 86.7156398,34.9905213 C87.0199052,35.3454976 87.2227488,35.9033175 87.2227488,36.663981 L87.2227488,46.6540284 C87.2227488,46.9582938 87.0706161,47.2118483 86.8170616,47.4146919 C86.5635071,47.6175355 86.1578199,47.7189573 85.6507109,47.7189573 L84.078673,47.7189573 L84.078673,48.936019 L93.8151659,48.936019 L93.8151659,47.7189573 L91.7867299,47.7189573 C91.1274882,47.7189573 90.67109,47.6175355 90.4175355,47.4146919 C90.163981,47.2118483 90.0118483,46.9075829 90.0118483,46.5526066 L90.0118483,43.6620853 C90.0118483,40.6701422 91.2796209,35.4976303 93.8151659,35.4976303 C94.5251185,35.4976303 94.3729858,36.6132701 95.7421801,36.6132701 C96.8578199,36.6132701 97.6691943,35.8018957 97.6691943,34.6862559 C97.7199052,33.4691943 96.7056872,32.7085308 95.6407583,32.7085308 L95.6407583,32.7085308 Z"></path>
                </g>
                <path d="M0.354976303,0 L0.354976303,22.7184834 C0.354976303,56.1876777 30.3251185,70.1331754 30.3251185,70.1331754 C30.3251185,70.1331754 60.2952607,56.1876777 60.2952607,22.7184834 L60.2952607,0 L0.354976303,0 L0.354976303,0 Z" id="Shape"></path>
            </g>
            <rect id="Rectangle-path" fill="#FFFFFF" x="1.36919431" y="1.01421801" width="57.9625592" height="21.7549763"></rect>
            <path d="M49.5445498,44.8791469 C49.5445498,43.0028436 49.2402844,41.1265403 48.7331754,39.3009479 C43.5099526,42.6985782 38.3374408,43.6113744 35.2440758,41.785782 C35.3962085,41.5829384 35.4976303,41.278673 35.4976303,40.9744076 C35.4976303,40.264455 34.9398104,39.7066351 34.2298578,39.7066351 C33.9255924,39.7066351 33.6720379,39.8080569 33.4691943,39.9601896 C31.592891,36.8668246 32.5056872,31.6943128 35.9033175,26.47109 C34.128436,25.9132701 32.2521327,25.6597156 30.3251185,25.6597156 L30.3251185,25.6597156 C28.4488152,25.6597156 26.5725118,25.963981 24.7469194,26.47109 C28.1445498,31.6943128 29.057346,36.8668246 27.1810427,39.9601896 C26.9781991,39.8080569 26.6739336,39.7066351 26.4203791,39.7066351 C25.7104265,39.7066351 25.1526066,40.264455 25.1526066,40.9744076 C25.1526066,41.278673 25.2540284,41.5322275 25.4061611,41.7350711 C22.3127962,43.6113744 17.1402844,42.6985782 11.9170616,39.250237 C11.3592417,41.0251185 11.1056872,42.9014218 11.1056872,44.828436 L11.1056872,44.828436 C11.1056872,46.7047393 11.4099526,48.5810427 11.9170616,50.4066351 C17.1402844,47.0090047 22.3127962,46.0962085 25.4061611,47.9725118 C25.2540284,48.1753555 25.1526066,48.4796209 25.1526066,48.7331754 C25.1526066,49.443128 25.7104265,50.0009479 26.4203791,50.0009479 C26.7246445,50.0009479 26.9781991,49.8995261 27.1810427,49.7473934 C29.057346,52.8407583 28.1445498,58.0132701 24.7469194,63.2364929 C26.5218009,63.7943128 28.3981043,64.0478673 30.3251185,64.0478673 L30.3251185,64.0478673 C32.2014218,64.0478673 34.0777251,63.7436019 35.9033175,63.2364929 C32.5056872,58.0132701 31.592891,52.8407583 33.4184834,49.7473934 C33.621327,49.8995261 33.9255924,50.0009479 34.2298578,50.0009479 C34.9398104,50.0009479 35.4976303,49.443128 35.4976303,48.7331754 C35.4976303,48.42891 35.3962085,48.1753555 35.2440758,47.9725118 C38.3374408,46.0962085 43.5099526,47.0090047 48.7331754,50.4066351 C49.2909953,48.6317536 49.5445498,46.7554502 49.5445498,44.8791469 L49.5445498,44.8791469 L49.5445498,44.8791469 Z" id="Shape" fill="#FFFFFF"></path>
            <circle id="Oval" fill="#003A65" cx="30.3758294" cy="44.8791469" r="3.44834123"></circle>
            <g id="Group" transform="translate(3.042654, 1.014218)" fill="#D70929">
                <path d="M8.97582938,13.2862559 C7.50521327,12.1706161 5.62890995,12.1706161 5.32464455,12.1706161 C5.67962085,11.5113744 5.93317536,11.3592417 6.59241706,10.9535545 C4.25971564,10.9535545 4.00616114,10.3450237 3.90473934,9.78720379 C4.51327014,9.88862559 5.27393365,9.68578199 5.52748815,9.43222749 C3.85402844,9.33080569 3.29620853,8.21516588 3.09336493,7.80947867 C4.41184834,7.70805687 4.41184834,7.04881517 4.20900474,6.64312796 C4.05687204,6.33886256 3.65118483,6.08530806 3.19478673,6.23744076 C2.78909953,6.33886256 2.43412322,6.89668246 2.02843602,6.94739336 C1.67345972,6.99810427 1.62274882,6.59241706 1.62274882,6.38957346 C1.21706161,6.38957346 0.811374408,6.59241706 0.557819905,6.84597156 C0.659241706,5.32464455 2.28199052,4.71611374 3.29620853,4.91895735 C3.29620853,4.91895735 3.24549763,4.25971564 3.04265403,4.05687204 C2.73838863,3.75260664 2.33270142,3.80331754 2.02843602,3.54976303 C1.82559242,3.39763033 1.82559242,3.09336493 2.18056872,2.94123223 C1.87630332,2.53554502 0.963507109,2.48483412 0.963507109,2.48483412 C2.78909953,1.11563981 3.95545024,2.83981043 4.36113744,4.15829384 C4.86824645,3.54976303 4.91895735,3.19478673 4.81753555,2.89052133 C4.76682464,2.53554502 4.46255924,2.28199052 4.46255924,2.02843602 C4.51327014,1.72417062 4.86824645,1.77488152 4.86824645,1.77488152 C4.81753555,1.26777251 4.41184834,0.912796209 4.10758294,0.760663507 C4.10758294,0.760663507 5.57819905,0.608530806 6.13601896,2.12985782 C6.69383886,3.54976303 5.98388626,4.41184834 5.98388626,4.41184834 C5.98388626,4.41184834 6.54170616,4.46255924 6.74454976,4.20900474 C6.99810427,3.90473934 6.84597156,3.49905213 7.09952607,3.29620853 C7.35308057,3.09336493 7.65734597,3.49905213 7.65734597,3.49905213 C7.91090047,3.24549763 7.75876777,2.53554502 7.70805687,2.38341232 C7.70805687,2.38341232 8.46872038,2.83981043 8.36729858,3.75260664 C8.31658768,4.36113744 7.70805687,4.86824645 7.45450237,5.17251185 C7.20094787,5.47677725 6.49099526,6.18672986 7.65734597,8.26587678 C8.36729858,9.53364929 9.07725118,10.0407583 9.48293839,10.192891 C9.22938389,10.5985782 8.77298578,11.9170616 8.97582938,13.2862559 L8.97582938,13.2862559 Z" id="Shape"></path>
                <path d="M3.19478673,16.0753555 C1.77488152,16.1767773 -0.760663507,16.7345972 0.557819905,19.371564 C0.557819905,18.8137441 0.760663507,18.3066351 1.06492891,18.1037915 C1.16635071,18.5094787 1.47061611,18.5601896 1.72417062,18.4080569 C1.92701422,18.2559242 2.18056872,17.7995261 2.43412322,17.6473934 C2.68767773,17.4952607 2.99194313,17.3938389 3.39763033,17.4952607 C2.23127962,19.4222749 3.60047393,21.2985782 4.66540284,21.1971564 C4.05687204,20.7914692 4.10758294,20.2336493 4.10758294,20.0308057 C4.10758294,20.0308057 4.46255924,20.1322275 4.61469194,19.8279621 C4.71611374,19.5744076 4.56398104,19.1180095 4.66540284,18.6616114 C4.76682464,18.357346 5.02037915,18.2052133 5.27393365,18.2559242 C5.62890995,18.3066351 5.78104265,18.6616114 5.73033175,18.9151659 C5.73033175,19.2701422 5.52748815,19.6251185 5.52748815,19.6251185 C6.13601896,20.0815166 7.86018957,19.5236967 8.92511848,18.6616114 C8.92511848,18.9151659 8.87440758,19.4222749 8.62085308,19.9293839 C9.53364929,20.0815166 11.1563981,19.0672986 11.6127962,18.2559242 C11.6635071,18.6616114 11.6127962,19.5236967 11.1056872,20.0815166 C11.8156398,20.2336493 13.6919431,19.6758294 15.2132701,18.2052133 C15.3146919,19.0165877 16.5317536,20.2336493 17.9009479,19.5744076 C17.9009479,19.5744076 17.2924171,19.2194313 17.2924171,18.7123223 C17.2924171,17.9009479 18.2052133,17.2924171 19.2701422,16.7853081 C20.5379147,16.2274882 22.6677725,15.9739336 24.7976303,14.9597156 C28.7023697,13.0834123 29.4123223,11.3085308 32.6578199,11.3085308 C34.0777251,11.3085308 35.4469194,11.6127962 36.156872,12.7791469 C36.8668246,13.9454976 36.663981,15.3146919 37.4753555,16.0753555 C38.2867299,16.836019 39.6559242,16.2781991 40.4165877,16.0246445 C42.292891,15.4668246 45.0312796,14.3004739 46.7047393,14.1990521 C48.3781991,14.0976303 48.8345972,15.3146919 48.8853081,15.4161137 C49.0374408,15.77109 48.8853081,16.0246445 48.6317536,15.9739336 C48.0739336,15.9232227 47.0597156,15.6696682 46.4511848,16.0246445 C45.5890995,16.4810427 45.842654,17.6473934 45.842654,17.6473934 C46.0454976,17.343128 46.5526066,16.7853081 47.1104265,16.7853081 C47.1104265,16.836019 47.2118483,17.4445498 47.7189573,17.2417062 C48.0739336,17.0895735 48.4796209,16.6331754 49.1388626,16.7345972 C48.4796209,17.2924171 47.2625592,19.4729858 48.9867299,20.4364929 C48.7331754,20.0308057 48.6824645,19.3208531 48.8853081,19.0165877 C48.8853081,19.0165877 49.3924171,19.371564 49.6966825,18.864455 C49.8488152,18.6616114 49.6459716,18.1037915 49.7473934,17.6981043 C49.8488152,17.343128 50.2037915,17.0895735 50.2037915,17.0895735 C50.3559242,17.5459716 51.2180095,19.0165877 53.5,18.9151659 C52.992891,18.7123223 52.6379147,18.357346 52.5872038,18.1037915 C52.8407583,17.9009479 52.992891,17.4445498 52.6886256,17.343128 C52.4350711,17.2417062 51.9279621,17.343128 51.6744076,16.9881517 C51.3701422,16.5824645 51.471564,15.9739336 51.471564,15.9739336 C52.2322275,16.32891 54.2099526,17.0895735 55.021327,15.3146919 C54.7677725,15.4668246 54.1085308,15.6696682 53.7028436,15.6696682 C53.6521327,15.4668246 53.4492891,14.9090047 53.0436019,14.8582938 C52.485782,14.8075829 52.1308057,15.0104265 51.5729858,15.0611374 C51.2180095,15.1118483 51.0151659,14.9090047 50.9137441,14.7061611 C50.8630332,14.5540284 50.9137441,14.3004739 51.0151659,14.1990521 C51.2180095,13.9454976 51.6236967,13.742654 51.6236967,13.742654 C51.3194313,13.1848341 50.3559242,13.4383886 50.1530806,13.4383886 C50.2037915,13.1341232 50.5080569,12.5255924 51.1672986,12.2720379 C50.9137441,11.8663507 50.2037915,11.5113744 48.9867299,11.714218 C49.1388626,11.207109 49.5445498,10.7 49.8995261,10.5478673 C49.2402844,10.192891 47.7189573,10.3450237 46.349763,11.3085308 C46.4004739,11.0042654 46.349763,10.0914692 45.9440758,9.73649289 C45.9440758,9.73649289 44.1691943,11.9677725 42.3943128,11.714218 C40.6194313,11.4099526 40.9236967,9.28009479 40.9236967,9.28009479 C40.9236967,9.28009479 44.3720379,9.83791469 46.0962085,9.07725118 C47.7696682,8.31658768 47.7696682,7.09952607 49.1895735,6.38957346 C50.3052133,5.78104265 51.6744076,6.28815166 51.6744076,6.28815166 C51.471564,5.12180095 49.2909953,4.20900474 47.5668246,5.98388626 C47.5668246,5.98388626 47.5161137,3.29620853 43.4085308,3.49905213 C41.8872038,3.54976303 39.0981043,4.41184834 36.5118483,4.86824645 C33.9763033,5.32464455 30.2744076,5.52748815 28.7023697,5.52748815 C27.1303318,5.52748815 25.5582938,5.17251185 25.5582938,4.15829384 C25.5582938,3.14407583 26.7246445,2.99194313 27.4853081,2.99194313 C28.7023697,2.99194313 30.3758294,3.70189573 31.7450237,4.15829384 C32.7085308,4.51327014 33.6720379,4.51327014 34.1791469,4.51327014 C35.5990521,4.51327014 37.3739336,3.80331754 38.2867299,3.44834123 C39.1995261,3.09336493 39.9094787,2.89052133 41.6336493,3.04265403 C41.0758294,2.33270142 39.0981043,1.52132701 36.8161137,2.73838863 C36.6132701,2.38341232 37.0696682,1.67345972 37.9317536,1.41990521 C37.5260664,1.16635071 36.2075829,0.811374408 34.635545,0.862085308 C32.1507109,0.912796209 31.3393365,2.07914692 28.9559242,1.97772512 C26.5218009,1.87630332 24.3412322,2.28199052 24.3412322,4.10758294 C24.3412322,5.57819905 26.1161137,6.69383886 28.9559242,6.79526066 C28.9052133,6.99810427 28.4995261,7.30236967 28.3473934,7.35308057 C29.3109005,7.50521327 30.7815166,7.40379147 32.6578199,6.18672986 C32.7085308,6.38957346 32.5563981,6.89668246 32.3535545,7.04881517 C33.0127962,7.04881517 34.2805687,6.69383886 35.8018957,5.78104265 C35.8018957,5.98388626 35.7511848,6.33886256 35.3962085,6.69383886 C37.17109,6.59241706 38.1345972,5.67962085 39.3516588,5.27393365 C40.9744076,4.76682464 46.0962085,3.54976303 46.0962085,6.44028436 C46.0962085,7.15023697 45.7412322,8.11374408 43.9663507,8.11374408 C42.1914692,8.11374408 39.1488152,7.30236967 38.5402844,7.20094787 C37.9317536,7.09952607 37.2725118,6.94739336 35.7511848,7.15023697 C34.2805687,7.35308057 23.3777251,8.92511848 21.6028436,9.17867299 C21.6028436,9.78720379 21.6028436,11.6127962 22.5663507,12.4241706 C21.8056872,12.7791469 20.9943128,13.0327014 19.5744076,12.3734597 C19.4729858,12.8298578 19.5744076,14.1990521 20.2336493,14.9597156 C19.6758294,15.1625592 18.5094787,15.4161137 17.3938389,14.7061611 C16.9374408,15.5175355 15.77109,17.6473934 12.5255924,16.9881517 C12.728436,16.836019 13.2862559,15.7203791 13.2862559,15.5175355 C12.6270142,15.9739336 10.9535545,16.9374408 7.80947867,16.5317536 C6.84597156,16.4303318 5.83175355,16.1260664 5.57819905,15.5175355 C5.27393365,14.8582938 5.67962085,13.9454976 5.47677725,13.4383886 C5.07109005,12.3734597 3.90473934,12.4748815 3.90473934,12.4748815 C4.00616114,12.5763033 4.46255924,12.8298578 4.56398104,13.235545 C4.56398104,13.235545 4.10758294,13.1848341 4.05687204,13.742654 C4.00616114,14.4526066 4.25971564,15.2132701 4.25971564,15.2132701 C2.94123223,13.8947867 0.760663507,12.4748815 0.0507109005,14.8075829 C0.354976303,14.5033175 0.709952607,14.3004739 1.11563981,14.3511848 C1.11563981,14.3511848 0.862085308,14.756872 1.36919431,15.1118483 C1.62274882,15.263981 2.23127962,15.1118483 2.53554502,15.2132701 C2.89052133,15.4668246 3.19478673,16.0753555 3.19478673,16.0753555" id="Shape"></path>
                <path d="M32.1507109,15.3654028 C32.4042654,15.5682464 32.3028436,15.77109 32.1507109,15.9232227 C31.9985782,16.0246445 30.578673,16.9881517 29.6658768,16.6838863 C28.9559242,16.4810427 28.9559242,15.2132701 27.9924171,14.756872 C27.1810427,14.4018957 26.3189573,15.0104265 26.3189573,15.0104265 C26.6739336,15.0611374 27.0796209,15.1625592 27.2317536,15.263981 C27.2317536,15.263981 27.0796209,15.5682464 27.3838863,15.7203791 C27.6881517,15.8725118 27.8909953,15.8218009 28.0938389,16.0246445 C28.3473934,16.32891 28.1445498,16.9374408 28.1445498,16.9374408 C26.0146919,15.263981 24.0369668,16.3796209 23.935545,17.4952607 C24.1383886,17.3938389 24.6454976,17.0895735 24.949763,17.1402844 C24.949763,17.1402844 24.949763,17.4445498 25.2033175,17.5459716 C25.5075829,17.6473934 25.8625592,17.343128 26.3189573,17.3938389 C26.7753555,17.4445498 27.1810427,17.9009479 27.1810427,17.9009479 C26.5218009,18.0023697 25.0511848,19.0672986 26.1668246,20.7914692 C26.1668246,20.4872038 26.1668246,20.0815166 26.3696682,19.9293839 C26.3696682,19.9293839 26.7246445,20.1322275 26.9781991,19.878673 C27.2317536,19.6758294 27.2824645,19.1687204 27.6374408,18.8137441 C27.9417062,18.4587678 28.3473934,18.4080569 28.3473934,18.4080569 C28.1952607,19.371564 29.0066351,21.1971564 30.578673,20.7914692 C30.2744076,20.5886256 29.9701422,20.1829384 29.9701422,19.9800948 C29.9701422,19.9800948 30.4265403,19.8279621 30.3758294,19.5744076 C30.2744076,19.1687204 29.7165877,19.2701422 29.7165877,18.7630332 C29.7165877,18.4587678 29.9701422,18.2559242 30.3758294,18.2559242 C31.3393365,18.2559242 31.1872038,19.4729858 31.1872038,19.4729858 C31.7957346,19.4222749 32.7085308,18.7123223 32.9113744,17.9516588 C33.2663507,18.1545024 33.4184834,18.9658768 33.3677725,19.4222749 C34.128436,19.1180095 34.7369668,18.5094787 34.7369668,16.3796209 C35.3454976,17.2924171 36.9682464,17.7995261 38.1345972,16.9881517 C36.6132701,16.7345972 36.3090047,15.1625592 36.2582938,14.9090047 C36.156872,14.6047393 36.0047393,13.3369668 35.3454976,12.6777251 C34.3819905,11.714218 32.1507109,11.7649289 30.8322275,12.1706161 C30.4772512,12.2720379 30.071564,12.4748815 30.071564,13.1341232 C30.071564,13.742654 30.1729858,14.3511848 31.085782,14.8075829 C31.6943128,15.1118483 31.9985782,15.263981 32.1507109,15.3654028 L32.1507109,15.3654028 Z" id="Shape"></path>
                <path d="M22.7691943,4.56398104 C22.8199052,4.46255924 22.921327,4.10758294 22.5663507,4.00616114 C22.0592417,3.85402844 21.0450237,4.00616114 21.0450237,4.00616114 C21.5014218,3.44834123 21.2985782,2.12985782 20.7407583,1.72417062 C20.6900474,2.33270142 20.0815166,2.68767773 19.5236967,2.53554502 C18.8137441,2.33270142 19.0672986,1.36919431 19.3208531,0.963507109 C18.7630332,0.912796209 17.850237,1.06492891 17.0895735,2.18056872 C16.8867299,0.760663507 15.4161137,0.507109005 15.1118483,0.456398104 C15.4161137,1.06492891 15.0611374,1.97772512 14.5033175,1.77488152 C14.4018957,0.811374408 13.3876777,0.405687204 13.3369668,1.06492891 C13.235545,2.18056872 12.221327,3.49905213 11.3592417,3.54976303 C11.2578199,4.15829384 12.0184834,4.51327014 12.4241706,4.51327014 C11.4099526,5.98388626 9.93933649,5.73033175 9.12796209,5.42606635 C9.07725118,5.98388626 9.73649289,7.20094787 10.9028436,7.20094787 C10.2943128,8.16445498 8.97582938,8.21516588 8.57014218,8.01232227 C8.41800948,8.92511848 9.83791469,9.73649289 10.2436019,9.78720379 C9.02654028,11.714218 9.43222749,14.0469194 10.1421801,14.9597156 C10.1421801,14.9597156 10.3957346,14.3004739 10.7507109,13.9454976 C11.0549763,13.6412322 11.3085308,13.5905213 11.4606635,13.6919431 C11.7649289,13.8440758 11.6635071,14.249763 11.5113744,14.6047393 C11.207109,15.1625592 10.5985782,15.77109 10.5985782,15.77109 C11.714218,16.0246445 13.6919431,14.8582938 13.9454976,14.3511848 C14.1483412,14.9597156 13.742654,15.9739336 13.4890995,16.4303318 C15.6189573,16.6838863 16.6838863,14.8075829 17.1402844,13.6919431 C17.850237,14.5033175 18.8137441,14.6047393 19.2701422,14.5033175 C18.5601896,13.235545 18.864455,11.8663507 19.1687204,11.4099526 C19.878673,12.1199052 20.9436019,12.2720379 21.4507109,12.0691943 C20.7407583,11.1056872 20.7407583,8.77298578 20.9436019,7.96161137 C21.4,8.26587678 22.0592417,8.36729858 22.3127962,8.21516588 C22.3127962,8.21516588 21.8563981,7.40379147 22.0085308,6.23744076 C22.1099526,5.57819905 22.5663507,4.96966825 22.7691943,4.56398104 L22.7691943,4.56398104 Z M14.5540284,5.17251185 C14.6554502,5.07109005 14.756872,4.96966825 14.8075829,5.07109005 C14.9597156,5.27393365 14.9597156,5.42606635 15.263981,5.67962085 C15.4668246,5.83175355 15.77109,5.98388626 15.8725118,5.98388626 C15.9232227,6.28815166 15.4161137,6.64312796 14.756872,6.03459716 C14.4526066,5.78104265 14.3511848,5.42606635 14.5540284,5.17251185 L14.5540284,5.17251185 Z M16.1767773,10.9535545 C15.9232227,11.4606635 14.8582938,12.221327 14.1990521,11.9170616 C14.5033175,11.8156398 15.2132701,11.2578199 15.6189573,10.5985782 C15.5175355,10.5478673 15.263981,10.3957346 15.2132701,10.2943128 C14.9597156,10.3957346 14.5540284,10.8014218 14.249763,11.2578199 C14.1483412,11.0042654 14.3511848,10.3450237 14.6047393,9.99004739 C14.4018957,9.93933649 14.0976303,9.83791469 13.9962085,9.73649289 C13.6919431,10.4464455 13.6919431,11.3592417 13.742654,11.6635071 C13.0834123,11.3592417 13.0834123,10.0407583 13.3369668,9.53364929 C12.5255924,8.97582938 12.7791469,8.31658768 13.0327014,8.16445498 C13.0327014,8.36729858 13.235545,8.87440758 13.9454976,9.17867299 C14.6554502,9.53364929 14.9090047,9.28009479 15.0104265,9.12796209 C15.1625592,8.82369668 14.8075829,8.57014218 14.5540284,8.31658768 C14.3004739,8.06303318 14.249763,7.65734597 14.4018957,7.45450237 C14.6047393,7.20094787 14.9597156,7.25165877 15.1625592,7.40379147 C14.3004739,7.55592417 15.3146919,8.46872038 15.6189573,8.57014218 C15.8725118,8.72227488 17.1909953,8.97582938 16.836019,8.21516588 C17.0388626,8.26587678 17.2924171,8.51943128 17.2417062,8.87440758 C17.1909953,9.12796209 16.836019,9.33080569 16.4810427,9.28009479 C16.1260664,9.22938389 15.7203791,9.12796209 15.5682464,9.38151659 C15.4668246,9.53364929 15.4668246,9.88862559 16.1767773,10.2436019 C16.8867299,10.5985782 17.343128,10.4971564 17.5459716,10.3450237 C17.4952607,10.6492891 17.0895735,11.2578199 16.1767773,10.9535545 L16.1767773,10.9535545 Z M18.9658768,7.40379147 C18.9151659,7.70805687 18.5601896,7.86018957 18.1037915,7.75876777 C17.2417062,7.60663507 17.2417062,6.94739336 17.4952607,6.84597156 C17.5966825,6.94739336 17.850237,7.09952607 18.1037915,7.15023697 C18.4587678,7.20094787 18.6109005,7.15023697 18.864455,7.15023697 C18.9658768,7.15023697 18.9658768,7.30236967 18.9658768,7.40379147 L18.9658768,7.40379147 Z" id="Shape"></path>
            </g>
            <path d="M212.174408,67.1919431 L212.174408,67.1919431 C212.478673,67.1919431 212.732227,66.9383886 212.732227,66.6341232 C212.732227,66.3298578 212.478673,66.0763033 212.174408,66.0763033 L212.174408,66.0763033 C211.870142,66.0763033 211.616588,66.3298578 211.616588,66.6341232 C211.616588,66.9383886 211.870142,67.1919431 212.174408,67.1919431 L212.174408,67.1919431 Z M210.399526,67.1919431 L210.399526,67.1919431 C210.703791,67.1919431 210.957346,66.9383886 210.957346,66.6341232 C210.957346,66.3298578 210.703791,66.0763033 210.399526,66.0763033 L210.399526,66.0763033 C210.095261,66.0763033 209.841706,66.3298578 209.841706,66.6341232 C209.841706,66.9383886 210.095261,67.1919431 210.399526,67.1919431 L210.399526,67.1919431 Z M208.624645,67.1919431 L208.624645,67.1919431 C208.92891,67.1919431 209.182464,66.9383886 209.182464,66.6341232 C209.182464,66.3298578 208.92891,66.0763033 208.624645,66.0763033 L208.624645,66.0763033 C208.320379,66.0763033 208.066825,66.3298578 208.066825,66.6341232 C208.066825,66.9383886 208.320379,67.1919431 208.624645,67.1919431 L208.624645,67.1919431 Z M206.849763,67.1919431 L206.849763,67.1919431 C207.154028,67.1919431 207.407583,66.9383886 207.407583,66.6341232 C207.407583,66.3298578 207.154028,66.0763033 206.849763,66.0763033 L206.849763,66.0763033 C206.545498,66.0763033 206.291943,66.3298578 206.291943,66.6341232 C206.291943,66.9383886 206.545498,67.1919431 206.849763,67.1919431 L206.849763,67.1919431 Z M205.074882,67.1919431 L205.074882,67.1919431 C205.379147,67.1919431 205.632701,66.9383886 205.632701,66.6341232 C205.632701,66.3298578 205.379147,66.0763033 205.074882,66.0763033 L205.074882,66.0763033 C204.770616,66.0763033 204.517062,66.3298578 204.517062,66.6341232 C204.517062,66.9383886 204.770616,67.1919431 205.074882,67.1919431 L205.074882,67.1919431 Z M203.3,67.1919431 L203.3,67.1919431 C203.604265,67.1919431 203.85782,66.9383886 203.85782,66.6341232 C203.85782,66.3298578 203.604265,66.0763033 203.3,66.0763033 L203.3,66.0763033 C202.995735,66.0763033 202.74218,66.3298578 202.74218,66.6341232 C202.74218,66.9383886 202.995735,67.1919431 203.3,67.1919431 L203.3,67.1919431 Z M201.525118,67.1919431 L201.525118,67.1919431 C201.829384,67.1919431 202.082938,66.9383886 202.082938,66.6341232 C202.082938,66.3298578 201.829384,66.0763033 201.525118,66.0763033 L201.525118,66.0763033 C201.220853,66.0763033 200.967299,66.3298578 200.967299,66.6341232 C200.916588,66.9383886 201.170142,67.1919431 201.525118,67.1919431 L201.525118,67.1919431 Z M199.750237,67.1919431 L199.750237,67.1919431 C200.054502,67.1919431 200.308057,66.9383886 200.308057,66.6341232 C200.308057,66.3298578 200.054502,66.0763033 199.750237,66.0763033 L199.750237,66.0763033 C199.445972,66.0763033 199.192417,66.3298578 199.192417,66.6341232 C199.141706,66.9383886 199.395261,67.1919431 199.750237,67.1919431 L199.750237,67.1919431 Z M197.924645,67.1919431 L197.924645,67.1919431 C198.22891,67.1919431 198.482464,66.9383886 198.482464,66.6341232 C198.482464,66.3298578 198.22891,66.0763033 197.924645,66.0763033 L197.924645,66.0763033 C197.620379,66.0763033 197.366825,66.3298578 197.366825,66.6341232 C197.366825,66.9383886 197.620379,67.1919431 197.924645,67.1919431 L197.924645,67.1919431 Z M196.149763,67.1919431 L196.149763,67.1919431 C196.454028,67.1919431 196.707583,66.9383886 196.707583,66.6341232 C196.707583,66.3298578 196.454028,66.0763033 196.149763,66.0763033 L196.149763,66.0763033 C195.845498,66.0763033 195.591943,66.3298578 195.591943,66.6341232 C195.591943,66.9383886 195.845498,67.1919431 196.149763,67.1919431 L196.149763,67.1919431 Z M194.374882,67.1919431 L194.374882,67.1919431 C194.679147,67.1919431 194.932701,66.9383886 194.932701,66.6341232 C194.932701,66.3298578 194.679147,66.0763033 194.374882,66.0763033 L194.374882,66.0763033 C194.070616,66.0763033 193.817062,66.3298578 193.817062,66.6341232 C193.817062,66.9383886 194.070616,67.1919431 194.374882,67.1919431 L194.374882,67.1919431 Z M192.6,67.1919431 L192.6,67.1919431 C192.904265,67.1919431 193.15782,66.9383886 193.15782,66.6341232 C193.15782,66.3298578 192.904265,66.0763033 192.6,66.0763033 L192.6,66.0763033 C192.295735,66.0763033 192.04218,66.3298578 192.04218,66.6341232 C192.04218,66.9383886 192.295735,67.1919431 192.6,67.1919431 L192.6,67.1919431 Z M190.825118,67.1919431 L190.825118,67.1919431 C191.129384,67.1919431 191.382938,66.9383886 191.382938,66.6341232 C191.382938,66.3298578 191.129384,66.0763033 190.825118,66.0763033 L190.825118,66.0763033 C190.520853,66.0763033 190.267299,66.3298578 190.267299,66.6341232 C190.267299,66.9383886 190.520853,67.1919431 190.825118,67.1919431 L190.825118,67.1919431 Z M189.050237,67.1919431 L189.050237,67.1919431 C189.354502,67.1919431 189.608057,66.9383886 189.608057,66.6341232 C189.608057,66.3298578 189.354502,66.0763033 189.050237,66.0763033 L189.050237,66.0763033 C188.745972,66.0763033 188.492417,66.3298578 188.492417,66.6341232 C188.492417,66.9383886 188.745972,67.1919431 189.050237,67.1919431 L189.050237,67.1919431 Z M187.275355,67.1919431 L187.275355,67.1919431 C187.579621,67.1919431 187.833175,66.9383886 187.833175,66.6341232 C187.833175,66.3298578 187.579621,66.0763033 187.275355,66.0763033 L187.275355,66.0763033 C186.97109,66.0763033 186.717536,66.3298578 186.717536,66.6341232 C186.717536,66.9383886 186.97109,67.1919431 187.275355,67.1919431 L187.275355,67.1919431 Z M185.500474,67.1919431 L185.500474,67.1919431 C185.804739,67.1919431 186.058294,66.9383886 186.058294,66.6341232 C186.058294,66.3298578 185.804739,66.0763033 185.500474,66.0763033 L185.500474,66.0763033 C185.196209,66.0763033 184.942654,66.3298578 184.942654,66.6341232 C184.942654,66.9383886 185.196209,67.1919431 185.500474,67.1919431 L185.500474,67.1919431 Z M183.725592,67.1919431 L183.725592,67.1919431 C184.029858,67.1919431 184.283412,66.9383886 184.283412,66.6341232 C184.283412,66.3298578 184.029858,66.0763033 183.725592,66.0763033 L183.725592,66.0763033 C183.421327,66.0763033 183.167773,66.3298578 183.167773,66.6341232 C183.117062,66.9383886 183.370616,67.1919431 183.725592,67.1919431 L183.725592,67.1919431 Z M181.950711,67.1919431 L181.950711,67.1919431 C182.254976,67.1919431 182.508531,66.9383886 182.508531,66.6341232 C182.508531,66.3298578 182.254976,66.0763033 181.950711,66.0763033 L181.950711,66.0763033 C181.646445,66.0763033 181.392891,66.3298578 181.392891,66.6341232 C181.34218,66.9383886 181.595735,67.1919431 181.950711,67.1919431 L181.950711,67.1919431 Z M180.125118,67.1919431 L180.125118,67.1919431 C180.429384,67.1919431 180.682938,66.9383886 180.682938,66.6341232 C180.682938,66.3298578 180.429384,66.0763033 180.125118,66.0763033 L180.125118,66.0763033 C179.820853,66.0763033 179.567299,66.3298578 179.567299,66.6341232 C179.567299,66.9383886 179.820853,67.1919431 180.125118,67.1919431 L180.125118,67.1919431 Z M178.350237,67.1919431 L178.350237,67.1919431 C178.654502,67.1919431 178.908057,66.9383886 178.908057,66.6341232 C178.908057,66.3298578 178.654502,66.0763033 178.350237,66.0763033 L178.350237,66.0763033 C178.045972,66.0763033 177.792417,66.3298578 177.792417,66.6341232 C177.792417,66.9383886 178.045972,67.1919431 178.350237,67.1919431 L178.350237,67.1919431 Z M176.575355,67.1919431 L176.575355,67.1919431 C176.879621,67.1919431 177.133175,66.9383886 177.133175,66.6341232 C177.133175,66.3298578 176.879621,66.0763033 176.575355,66.0763033 L176.575355,66.0763033 C176.27109,66.0763033 176.017536,66.3298578 176.017536,66.6341232 C176.017536,66.9383886 176.27109,67.1919431 176.575355,67.1919431 L176.575355,67.1919431 Z M174.800474,67.1919431 L174.800474,67.1919431 C175.104739,67.1919431 175.358294,66.9383886 175.358294,66.6341232 C175.358294,66.3298578 175.104739,66.0763033 174.800474,66.0763033 L174.800474,66.0763033 C174.496209,66.0763033 174.242654,66.3298578 174.242654,66.6341232 C174.242654,66.9383886 174.496209,67.1919431 174.800474,67.1919431 L174.800474,67.1919431 Z M173.025592,67.1919431 L173.025592,67.1919431 C173.329858,67.1919431 173.583412,66.9383886 173.583412,66.6341232 C173.583412,66.3298578 173.329858,66.0763033 173.025592,66.0763033 L173.025592,66.0763033 C172.721327,66.0763033 172.467773,66.3298578 172.467773,66.6341232 C172.467773,66.9383886 172.721327,67.1919431 173.025592,67.1919431 L173.025592,67.1919431 Z M171.250711,67.1919431 L171.250711,67.1919431 C171.554976,67.1919431 171.808531,66.9383886 171.808531,66.6341232 C171.808531,66.3298578 171.554976,66.0763033 171.250711,66.0763033 L171.250711,66.0763033 C170.946445,66.0763033 170.692891,66.3298578 170.692891,66.6341232 C170.692891,66.9383886 170.946445,67.1919431 171.250711,67.1919431 L171.250711,67.1919431 Z M169.475829,67.1919431 L169.475829,67.1919431 C169.780095,67.1919431 170.033649,66.9383886 170.033649,66.6341232 C170.033649,66.3298578 169.780095,66.0763033 169.475829,66.0763033 L169.475829,66.0763033 C169.171564,66.0763033 168.918009,66.3298578 168.918009,66.6341232 C168.918009,66.9383886 169.171564,67.1919431 169.475829,67.1919431 L169.475829,67.1919431 Z M167.700948,67.1919431 L167.700948,67.1919431 C168.005213,67.1919431 168.258768,66.9383886 168.258768,66.6341232 C168.258768,66.3298578 168.005213,66.0763033 167.700948,66.0763033 L167.700948,66.0763033 C167.396682,66.0763033 167.143128,66.3298578 167.143128,66.6341232 C167.143128,66.9383886 167.396682,67.1919431 167.700948,67.1919431 L167.700948,67.1919431 Z M165.926066,67.1919431 L165.926066,67.1919431 C166.230332,67.1919431 166.483886,66.9383886 166.483886,66.6341232 C166.483886,66.3298578 166.230332,66.0763033 165.926066,66.0763033 L165.926066,66.0763033 C165.621801,66.0763033 165.368246,66.3298578 165.368246,66.6341232 C165.317536,66.9383886 165.57109,67.1919431 165.926066,67.1919431 L165.926066,67.1919431 Z M164.151185,67.1919431 L164.151185,67.1919431 C164.45545,67.1919431 164.709005,66.9383886 164.709005,66.6341232 C164.709005,66.3298578 164.45545,66.0763033 164.151185,66.0763033 L164.151185,66.0763033 C163.846919,66.0763033 163.593365,66.3298578 163.593365,66.6341232 C163.542654,66.9383886 163.796209,67.1919431 164.151185,67.1919431 L164.151185,67.1919431 Z M162.325592,67.1919431 L162.325592,67.1919431 C162.629858,67.1919431 162.883412,66.9383886 162.883412,66.6341232 C162.883412,66.3298578 162.629858,66.0763033 162.325592,66.0763033 L162.325592,66.0763033 C162.021327,66.0763033 161.767773,66.3298578 161.767773,66.6341232 C161.767773,66.9383886 162.021327,67.1919431 162.325592,67.1919431 L162.325592,67.1919431 Z M160.550711,67.1919431 L160.550711,67.1919431 C160.854976,67.1919431 161.108531,66.9383886 161.108531,66.6341232 C161.108531,66.3298578 160.854976,66.0763033 160.550711,66.0763033 L160.550711,66.0763033 C160.246445,66.0763033 159.992891,66.3298578 159.992891,66.6341232 C159.992891,66.9383886 160.246445,67.1919431 160.550711,67.1919431 L160.550711,67.1919431 Z M158.775829,67.1919431 L158.775829,67.1919431 C159.080095,67.1919431 159.333649,66.9383886 159.333649,66.6341232 C159.333649,66.3298578 159.080095,66.0763033 158.775829,66.0763033 L158.775829,66.0763033 C158.471564,66.0763033 158.218009,66.3298578 158.218009,66.6341232 C158.218009,66.9383886 158.471564,67.1919431 158.775829,67.1919431 L158.775829,67.1919431 Z M157.000948,67.1919431 L157.000948,67.1919431 C157.305213,67.1919431 157.558768,66.9383886 157.558768,66.6341232 C157.558768,66.3298578 157.305213,66.0763033 157.000948,66.0763033 L157.000948,66.0763033 C156.696682,66.0763033 156.443128,66.3298578 156.443128,66.6341232 C156.443128,66.9383886 156.696682,67.1919431 157.000948,67.1919431 L157.000948,67.1919431 Z M155.226066,67.1919431 L155.226066,67.1919431 C155.530332,67.1919431 155.783886,66.9383886 155.783886,66.6341232 C155.783886,66.3298578 155.530332,66.0763033 155.226066,66.0763033 L155.226066,66.0763033 C154.921801,66.0763033 154.668246,66.3298578 154.668246,66.6341232 C154.668246,66.9383886 154.921801,67.1919431 155.226066,67.1919431 L155.226066,67.1919431 Z M153.451185,67.1919431 L153.451185,67.1919431 C153.75545,67.1919431 154.009005,66.9383886 154.009005,66.6341232 C154.009005,66.3298578 153.75545,66.0763033 153.451185,66.0763033 L153.451185,66.0763033 C153.146919,66.0763033 152.893365,66.3298578 152.893365,66.6341232 C152.893365,66.9383886 153.146919,67.1919431 153.451185,67.1919431 L153.451185,67.1919431 Z M151.676303,67.1919431 L151.676303,67.1919431 C151.980569,67.1919431 152.234123,66.9383886 152.234123,66.6341232 C152.234123,66.3298578 151.980569,66.0763033 151.676303,66.0763033 L151.676303,66.0763033 C151.372038,66.0763033 151.118483,66.3298578 151.118483,66.6341232 C151.118483,66.9383886 151.372038,67.1919431 151.676303,67.1919431 L151.676303,67.1919431 Z M149.901422,67.1919431 L149.901422,67.1919431 C150.205687,67.1919431 150.459242,66.9383886 150.459242,66.6341232 C150.459242,66.3298578 150.205687,66.0763033 149.901422,66.0763033 L149.901422,66.0763033 C149.597156,66.0763033 149.343602,66.3298578 149.343602,66.6341232 C149.343602,66.9383886 149.597156,67.1919431 149.901422,67.1919431 L149.901422,67.1919431 Z M148.12654,67.1919431 L148.12654,67.1919431 C148.430806,67.1919431 148.68436,66.9383886 148.68436,66.6341232 C148.68436,66.3298578 148.430806,66.0763033 148.12654,66.0763033 L148.12654,66.0763033 C147.822275,66.0763033 147.56872,66.3298578 147.56872,66.6341232 C147.518009,66.9383886 147.771564,67.1919431 148.12654,67.1919431 L148.12654,67.1919431 Z M146.351659,67.1919431 L146.351659,67.1919431 C146.655924,67.1919431 146.909479,66.9383886 146.909479,66.6341232 C146.909479,66.3298578 146.655924,66.0763033 146.351659,66.0763033 L146.351659,66.0763033 C146.047393,66.0763033 145.793839,66.3298578 145.793839,66.6341232 C145.743128,66.9383886 145.996682,67.1919431 146.351659,67.1919431 L146.351659,67.1919431 Z M144.526066,67.1919431 L144.526066,67.1919431 C144.830332,67.1919431 145.083886,66.9383886 145.083886,66.6341232 C145.083886,66.3298578 144.830332,66.0763033 144.526066,66.0763033 L144.526066,66.0763033 C144.221801,66.0763033 143.968246,66.3298578 143.968246,66.6341232 C143.968246,66.9383886 144.221801,67.1919431 144.526066,67.1919431 L144.526066,67.1919431 Z M142.751185,67.1919431 L142.751185,67.1919431 C143.05545,67.1919431 143.309005,66.9383886 143.309005,66.6341232 C143.309005,66.3298578 143.05545,66.0763033 142.751185,66.0763033 L142.751185,66.0763033 C142.446919,66.0763033 142.193365,66.3298578 142.193365,66.6341232 C142.193365,66.9383886 142.446919,67.1919431 142.751185,67.1919431 L142.751185,67.1919431 Z M140.976303,67.1919431 L140.976303,67.1919431 C141.280569,67.1919431 141.534123,66.9383886 141.534123,66.6341232 C141.534123,66.3298578 141.280569,66.0763033 140.976303,66.0763033 L140.976303,66.0763033 C140.672038,66.0763033 140.418483,66.3298578 140.418483,66.6341232 C140.418483,66.9383886 140.672038,67.1919431 140.976303,67.1919431 L140.976303,67.1919431 Z M139.201422,67.1919431 L139.201422,67.1919431 C139.505687,67.1919431 139.759242,66.9383886 139.759242,66.6341232 C139.759242,66.3298578 139.505687,66.0763033 139.201422,66.0763033 L139.201422,66.0763033 C138.897156,66.0763033 138.643602,66.3298578 138.643602,66.6341232 C138.643602,66.9383886 138.897156,67.1919431 139.201422,67.1919431 L139.201422,67.1919431 Z M137.42654,67.1919431 L137.42654,67.1919431 C137.730806,67.1919431 137.98436,66.9383886 137.98436,66.6341232 C137.98436,66.3298578 137.730806,66.0763033 137.42654,66.0763033 L137.42654,66.0763033 C137.122275,66.0763033 136.86872,66.3298578 136.86872,66.6341232 C136.86872,66.9383886 137.122275,67.1919431 137.42654,67.1919431 L137.42654,67.1919431 Z M135.651659,67.1919431 L135.651659,67.1919431 C135.955924,67.1919431 136.209479,66.9383886 136.209479,66.6341232 C136.209479,66.3298578 135.955924,66.0763033 135.651659,66.0763033 L135.651659,66.0763033 C135.347393,66.0763033 135.093839,66.3298578 135.093839,66.6341232 C135.093839,66.9383886 135.347393,67.1919431 135.651659,67.1919431 L135.651659,67.1919431 Z M133.876777,67.1919431 L133.876777,67.1919431 C134.181043,67.1919431 134.434597,66.9383886 134.434597,66.6341232 C134.434597,66.3298578 134.181043,66.0763033 133.876777,66.0763033 L133.876777,66.0763033 C133.572512,66.0763033 133.318957,66.3298578 133.318957,66.6341232 C133.318957,66.9383886 133.572512,67.1919431 133.876777,67.1919431 L133.876777,67.1919431 Z M132.101896,67.1919431 L132.101896,67.1919431 C132.406161,67.1919431 132.659716,66.9383886 132.659716,66.6341232 C132.659716,66.3298578 132.406161,66.0763033 132.101896,66.0763033 L132.101896,66.0763033 C131.79763,66.0763033 131.544076,66.3298578 131.544076,66.6341232 C131.544076,66.9383886 131.79763,67.1919431 132.101896,67.1919431 L132.101896,67.1919431 Z M130.327014,67.1919431 L130.327014,67.1919431 C130.63128,67.1919431 130.884834,66.9383886 130.884834,66.6341232 C130.884834,66.3298578 130.63128,66.0763033 130.327014,66.0763033 L130.327014,66.0763033 C130.022749,66.0763033 129.769194,66.3298578 129.769194,66.6341232 C129.718483,66.9383886 129.972038,67.1919431 130.327014,67.1919431 L130.327014,67.1919431 Z M128.552133,67.1919431 L128.552133,67.1919431 C128.856398,67.1919431 129.109953,66.9383886 129.109953,66.6341232 C129.109953,66.3298578 128.856398,66.0763033 128.552133,66.0763033 L128.552133,66.0763033 C128.247867,66.0763033 127.994313,66.3298578 127.994313,66.6341232 C127.943602,66.9383886 128.197156,67.1919431 128.552133,67.1919431 L128.552133,67.1919431 Z M126.72654,67.1919431 L126.72654,67.1919431 C127.030806,67.1919431 127.28436,66.9383886 127.28436,66.6341232 C127.28436,66.3298578 127.030806,66.0763033 126.72654,66.0763033 L126.72654,66.0763033 C126.422275,66.0763033 126.16872,66.3298578 126.16872,66.6341232 C126.16872,66.9383886 126.422275,67.1919431 126.72654,67.1919431 L126.72654,67.1919431 Z M124.951659,67.1919431 L124.951659,67.1919431 C125.255924,67.1919431 125.509479,66.9383886 125.509479,66.6341232 C125.509479,66.3298578 125.255924,66.0763033 124.951659,66.0763033 L124.951659,66.0763033 C124.647393,66.0763033 124.393839,66.3298578 124.393839,66.6341232 C124.393839,66.9383886 124.647393,67.1919431 124.951659,67.1919431 L124.951659,67.1919431 Z M123.176777,67.1919431 L123.176777,67.1919431 C123.481043,67.1919431 123.734597,66.9383886 123.734597,66.6341232 C123.734597,66.3298578 123.481043,66.0763033 123.176777,66.0763033 L123.176777,66.0763033 C122.872512,66.0763033 122.618957,66.3298578 122.618957,66.6341232 C122.618957,66.9383886 122.872512,67.1919431 123.176777,67.1919431 L123.176777,67.1919431 Z M121.401896,67.1919431 L121.401896,67.1919431 C121.706161,67.1919431 121.959716,66.9383886 121.959716,66.6341232 C121.959716,66.3298578 121.706161,66.0763033 121.401896,66.0763033 L121.401896,66.0763033 C121.09763,66.0763033 120.844076,66.3298578 120.844076,66.6341232 C120.844076,66.9383886 121.09763,67.1919431 121.401896,67.1919431 L121.401896,67.1919431 Z M119.627014,67.1919431 L119.627014,67.1919431 C119.93128,67.1919431 120.184834,66.9383886 120.184834,66.6341232 C120.184834,66.3298578 119.93128,66.0763033 119.627014,66.0763033 L119.627014,66.0763033 C119.322749,66.0763033 119.069194,66.3298578 119.069194,66.6341232 C119.069194,66.9383886 119.322749,67.1919431 119.627014,67.1919431 L119.627014,67.1919431 Z M117.852133,67.1919431 L117.852133,67.1919431 C118.156398,67.1919431 118.409953,66.9383886 118.409953,66.6341232 C118.409953,66.3298578 118.156398,66.0763033 117.852133,66.0763033 L117.852133,66.0763033 C117.547867,66.0763033 117.294313,66.3298578 117.294313,66.6341232 C117.294313,66.9383886 117.547867,67.1919431 117.852133,67.1919431 L117.852133,67.1919431 Z M116.077251,67.1919431 L116.077251,67.1919431 C116.381517,67.1919431 116.635071,66.9383886 116.635071,66.6341232 C116.635071,66.3298578 116.381517,66.0763033 116.077251,66.0763033 L116.077251,66.0763033 C115.772986,66.0763033 115.519431,66.3298578 115.519431,66.6341232 C115.519431,66.9383886 115.772986,67.1919431 116.077251,67.1919431 L116.077251,67.1919431 Z M114.30237,67.1919431 L114.30237,67.1919431 C114.606635,67.1919431 114.86019,66.9383886 114.86019,66.6341232 C114.86019,66.3298578 114.606635,66.0763033 114.30237,66.0763033 L114.30237,66.0763033 C113.998104,66.0763033 113.74455,66.3298578 113.74455,66.6341232 C113.74455,66.9383886 113.998104,67.1919431 114.30237,67.1919431 L114.30237,67.1919431 Z M112.527488,67.1919431 L112.527488,67.1919431 C112.831754,67.1919431 113.085308,66.9383886 113.085308,66.6341232 C113.085308,66.3298578 112.831754,66.0763033 112.527488,66.0763033 L112.527488,66.0763033 C112.223223,66.0763033 111.969668,66.3298578 111.969668,66.6341232 C111.918957,66.9383886 112.172512,67.1919431 112.527488,67.1919431 L112.527488,67.1919431 Z M110.752607,67.1919431 L110.752607,67.1919431 C111.056872,67.1919431 111.310427,66.9383886 111.310427,66.6341232 C111.310427,66.3298578 111.056872,66.0763033 110.752607,66.0763033 L110.752607,66.0763033 C110.448341,66.0763033 110.194787,66.3298578 110.194787,66.6341232 C110.144076,66.9383886 110.39763,67.1919431 110.752607,67.1919431 L110.752607,67.1919431 Z M108.927014,67.1919431 L108.927014,67.1919431 C109.23128,67.1919431 109.484834,66.9383886 109.484834,66.6341232 C109.484834,66.3298578 109.23128,66.0763033 108.927014,66.0763033 L108.927014,66.0763033 C108.622749,66.0763033 108.369194,66.3298578 108.369194,66.6341232 C108.369194,66.9383886 108.622749,67.1919431 108.927014,67.1919431 L108.927014,67.1919431 Z M107.152133,67.1919431 L107.152133,67.1919431 C107.456398,67.1919431 107.709953,66.9383886 107.709953,66.6341232 C107.709953,66.3298578 107.456398,66.0763033 107.152133,66.0763033 L107.152133,66.0763033 C106.847867,66.0763033 106.594313,66.3298578 106.594313,66.6341232 C106.594313,66.9383886 106.847867,67.1919431 107.152133,67.1919431 L107.152133,67.1919431 Z M105.377251,67.1919431 L105.377251,67.1919431 C105.681517,67.1919431 105.935071,66.9383886 105.935071,66.6341232 C105.935071,66.3298578 105.681517,66.0763033 105.377251,66.0763033 L105.377251,66.0763033 C105.072986,66.0763033 104.819431,66.3298578 104.819431,66.6341232 C104.819431,66.9383886 105.072986,67.1919431 105.377251,67.1919431 L105.377251,67.1919431 Z M103.60237,67.1919431 L103.60237,67.1919431 C103.906635,67.1919431 104.16019,66.9383886 104.16019,66.6341232 C104.16019,66.3298578 103.906635,66.0763033 103.60237,66.0763033 L103.60237,66.0763033 C103.298104,66.0763033 103.04455,66.3298578 103.04455,66.6341232 C103.04455,66.9383886 103.298104,67.1919431 103.60237,67.1919431 L103.60237,67.1919431 Z M101.827488,67.1919431 L101.827488,67.1919431 C102.131754,67.1919431 102.385308,66.9383886 102.385308,66.6341232 C102.385308,66.3298578 102.131754,66.0763033 101.827488,66.0763033 L101.827488,66.0763033 C101.523223,66.0763033 101.269668,66.3298578 101.269668,66.6341232 C101.269668,66.9383886 101.523223,67.1919431 101.827488,67.1919431 L101.827488,67.1919431 Z M100.052607,67.1919431 L100.052607,67.1919431 C100.356872,67.1919431 100.610427,66.9383886 100.610427,66.6341232 C100.610427,66.3298578 100.356872,66.0763033 100.052607,66.0763033 L100.052607,66.0763033 C99.7483412,66.0763033 99.4947867,66.3298578 99.4947867,66.6341232 C99.4947867,66.9383886 99.7483412,67.1919431 100.052607,67.1919431 L100.052607,67.1919431 Z M98.2777251,67.1919431 L98.2777251,67.1919431 C98.5819905,67.1919431 98.835545,66.9383886 98.835545,66.6341232 C98.835545,66.3298578 98.5819905,66.0763033 98.2777251,66.0763033 L98.2777251,66.0763033 C97.9734597,66.0763033 97.7199052,66.3298578 97.7199052,66.6341232 C97.7199052,66.9383886 97.9734597,67.1919431 98.2777251,67.1919431 L98.2777251,67.1919431 Z M96.5028436,67.1919431 L96.5028436,67.1919431 C96.807109,67.1919431 97.0606635,66.9383886 97.0606635,66.6341232 C97.0606635,66.3298578 96.807109,66.0763033 96.5028436,66.0763033 L96.5028436,66.0763033 C96.1985782,66.0763033 95.9450237,66.3298578 95.9450237,66.6341232 C95.9450237,66.9383886 96.1985782,67.1919431 96.5028436,67.1919431 L96.5028436,67.1919431 Z M94.7279621,67.1919431 L94.7279621,67.1919431 C95.0322275,67.1919431 95.285782,66.9383886 95.285782,66.6341232 C95.285782,66.3298578 95.0322275,66.0763033 94.7279621,66.0763033 L94.7279621,66.0763033 C94.4236967,66.0763033 94.1701422,66.3298578 94.1701422,66.6341232 C94.1194313,66.9383886 94.3729858,67.1919431 94.7279621,67.1919431 L94.7279621,67.1919431 Z M92.9530806,67.1919431 L92.9530806,67.1919431 C93.257346,67.1919431 93.5109005,66.9383886 93.5109005,66.6341232 C93.5109005,66.3298578 93.257346,66.0763033 92.9530806,66.0763033 L92.9530806,66.0763033 C92.6488152,66.0763033 92.3952607,66.3298578 92.3952607,66.6341232 C92.3445498,66.9383886 92.5981043,67.1919431 92.9530806,67.1919431 L92.9530806,67.1919431 Z M91.1274882,67.1919431 L91.1274882,67.1919431 C91.4317536,67.1919431 91.6853081,66.9383886 91.6853081,66.6341232 C91.6853081,66.3298578 91.4317536,66.0763033 91.1274882,66.0763033 L91.1274882,66.0763033 C90.8232227,66.0763033 90.5696682,66.3298578 90.5696682,66.6341232 C90.5696682,66.9383886 90.8232227,67.1919431 91.1274882,67.1919431 L91.1274882,67.1919431 Z M89.3526066,67.1919431 L89.3526066,67.1919431 C89.656872,67.1919431 89.9104265,66.9383886 89.9104265,66.6341232 C89.9104265,66.3298578 89.656872,66.0763033 89.3526066,66.0763033 L89.3526066,66.0763033 C89.0483412,66.0763033 88.7947867,66.3298578 88.7947867,66.6341232 C88.7947867,66.9383886 89.0483412,67.1919431 89.3526066,67.1919431 L89.3526066,67.1919431 Z M87.5777251,67.1919431 L87.5777251,67.1919431 C87.8819905,67.1919431 88.135545,66.9383886 88.135545,66.6341232 C88.135545,66.3298578 87.8819905,66.0763033 87.5777251,66.0763033 L87.5777251,66.0763033 C87.2734597,66.0763033 87.0199052,66.3298578 87.0199052,66.6341232 C87.0199052,66.9383886 87.2734597,67.1919431 87.5777251,67.1919431 L87.5777251,67.1919431 Z M85.8028436,67.1919431 L85.8028436,67.1919431 C86.107109,67.1919431 86.3606635,66.9383886 86.3606635,66.6341232 C86.3606635,66.3298578 86.107109,66.0763033 85.8028436,66.0763033 L85.8028436,66.0763033 C85.4985782,66.0763033 85.2450237,66.3298578 85.2450237,66.6341232 C85.2450237,66.9383886 85.4985782,67.1919431 85.8028436,67.1919431 L85.8028436,67.1919431 Z M84.0279621,67.1919431 L84.0279621,67.1919431 C84.3322275,67.1919431 84.585782,66.9383886 84.585782,66.6341232 C84.585782,66.3298578 84.3322275,66.0763033 84.0279621,66.0763033 L84.0279621,66.0763033 C83.7236967,66.0763033 83.4701422,66.3298578 83.4701422,66.6341232 C83.4701422,66.9383886 83.7236967,67.1919431 84.0279621,67.1919431 L84.0279621,67.1919431 Z M82.2530806,67.1919431 L82.2530806,67.1919431 C82.557346,67.1919431 82.8109005,66.9383886 82.8109005,66.6341232 C82.8109005,66.3298578 82.557346,66.0763033 82.2530806,66.0763033 L82.2530806,66.0763033 C81.9488152,66.0763033 81.6952607,66.3298578 81.6952607,66.6341232 C81.6952607,66.9383886 81.9488152,67.1919431 82.2530806,67.1919431 L82.2530806,67.1919431 Z M80.4781991,67.1919431 L80.4781991,67.1919431 C80.7824645,67.1919431 81.036019,66.9383886 81.036019,66.6341232 C81.036019,66.3298578 80.7824645,66.0763033 80.4781991,66.0763033 L80.4781991,66.0763033 C80.1739336,66.0763033 79.9203791,66.3298578 79.9203791,66.6341232 C79.9203791,66.9383886 80.1739336,67.1919431 80.4781991,67.1919431 L80.4781991,67.1919431 Z M78.7033175,67.1919431 L78.7033175,67.1919431 C79.0075829,67.1919431 79.2611374,66.9383886 79.2611374,66.6341232 C79.2611374,66.3298578 79.0075829,66.0763033 78.7033175,66.0763033 L78.7033175,66.0763033 C78.3990521,66.0763033 78.1454976,66.3298578 78.1454976,66.6341232 C78.1454976,66.9383886 78.3990521,67.1919431 78.7033175,67.1919431 L78.7033175,67.1919431 Z M76.928436,67.1919431 L76.928436,67.1919431 C77.2327014,67.1919431 77.4862559,66.9383886 77.4862559,66.6341232 C77.4862559,66.3298578 77.2327014,66.0763033 76.928436,66.0763033 L76.928436,66.0763033 C76.6241706,66.0763033 76.3706161,66.3298578 76.3706161,66.6341232 C76.3199052,66.9383886 76.5734597,67.1919431 76.928436,67.1919431 L76.928436,67.1919431 Z M75.1535545,67.1919431 L75.1535545,67.1919431 C75.4578199,67.1919431 75.7113744,66.9383886 75.7113744,66.6341232 C75.7113744,66.3298578 75.4578199,66.0763033 75.1535545,66.0763033 L75.1535545,66.0763033 C74.8492891,66.0763033 74.5957346,66.3298578 74.5957346,66.6341232 C74.5450237,66.9383886 74.7985782,67.1919431 75.1535545,67.1919431 L75.1535545,67.1919431 Z M73.3279621,67.1919431 L73.3279621,67.1919431 C73.6322275,67.1919431 73.885782,66.9383886 73.885782,66.6341232 C73.885782,66.3298578 73.6322275,66.0763033 73.3279621,66.0763033 L73.3279621,66.0763033 C73.0236967,66.0763033 72.7701422,66.3298578 72.7701422,66.6341232 C72.7701422,66.9383886 73.0236967,67.1919431 73.3279621,67.1919431 L73.3279621,67.1919431 Z M71.5530806,67.1919431 L71.5530806,67.1919431 C71.857346,67.1919431 72.1109005,66.9383886 72.1109005,66.6341232 C72.1109005,66.3298578 71.857346,66.0763033 71.5530806,66.0763033 L71.5530806,66.0763033 C71.2488152,66.0763033 70.9952607,66.3298578 70.9952607,66.6341232 C70.9952607,66.9383886 71.2488152,67.1919431 71.5530806,67.1919431 L71.5530806,67.1919431 Z M69.7781991,67.1919431 L69.7781991,67.1919431 C70.0824645,67.1919431 70.336019,66.9383886 70.336019,66.6341232 C70.336019,66.3298578 70.0824645,66.0763033 69.7781991,66.0763033 L69.7781991,66.0763033 C69.4739336,66.0763033 69.2203791,66.3298578 69.2203791,66.6341232 C69.2203791,66.9383886 69.4739336,67.1919431 69.7781991,67.1919431 L69.7781991,67.1919431 Z M68.0033175,67.1919431 L68.0033175,67.1919431 C68.3075829,67.1919431 68.5611374,66.9383886 68.5611374,66.6341232 C68.5611374,66.3298578 68.3075829,66.0763033 68.0033175,66.0763033 L68.0033175,66.0763033 C67.6990521,66.0763033 67.4454976,66.3298578 67.4454976,66.6341232 C67.4454976,66.9383886 67.6990521,67.1919431 68.0033175,67.1919431 L68.0033175,67.1919431 Z M66.228436,67.1919431 L66.228436,67.1919431 C66.5327014,67.1919431 66.7862559,66.9383886 66.7862559,66.6341232 C66.7862559,66.3298578 66.5327014,66.0763033 66.228436,66.0763033 L66.228436,66.0763033 C65.9241706,66.0763033 65.6706161,66.3298578 65.6706161,66.6341232 C65.6706161,66.9383886 65.9241706,67.1919431 66.228436,67.1919431 L66.228436,67.1919431 Z" id="Shape" fill="#D70929"></path>
            <g id="Group" transform="translate(65.417062, 75.052133)" fill="#003A65">
                <path d="M0.354976303,0.608530806 L6.08530806,0.608530806 C8.41800948,0.608530806 9.93933649,1.36919431 9.93933649,3.60047393 C9.93933649,4.76682464 9.33080569,5.62890995 8.31658768,6.13601896 C9.78720379,6.54170616 10.5478673,7.70805687 10.5478673,9.22938389 C10.5478673,11.714218 8.46872038,12.728436 6.28815166,12.728436 L0.405687204,12.728436 L0.405687204,0.608530806 L0.354976303,0.608530806 Z M2.99194313,5.47677725 L5.67962085,5.47677725 C6.59241706,5.47677725 7.30236967,5.07109005 7.30236967,4.05687204 C7.30236967,2.89052133 6.44028436,2.68767773 5.47677725,2.68767773 L2.99194313,2.68767773 L2.99194313,5.47677725 L2.99194313,5.47677725 Z M2.99194313,10.6492891 L5.83175355,10.6492891 C6.89668246,10.6492891 7.80947867,10.2943128 7.80947867,9.07725118 C7.80947867,7.86018957 7.04881517,7.35308057 5.88246445,7.35308057 L2.99194313,7.35308057 L2.99194313,10.6492891 L2.99194313,10.6492891 Z" id="Shape"></path>
                <path d="M19.6251185,12.728436 L17.343128,12.728436 L17.343128,11.5113744 L17.2417062,11.5113744 C16.6331754,12.4748815 15.5682464,12.9819905 14.5540284,12.9819905 C11.9677725,12.9819905 11.3592417,11.5620853 11.3592417,9.38151659 L11.3592417,3.95545024 L13.7933649,3.95545024 L13.7933649,8.92511848 C13.7933649,10.3450237 14.1990521,11.1056872 15.3146919,11.1056872 C16.6331754,11.1056872 17.1909953,10.3957346 17.1909953,8.57014218 L17.1909953,3.95545024 L19.6251185,3.95545024 L19.6251185,12.728436 L19.6251185,12.728436 Z" id="Shape"></path>
                <path d="M22.9720379,9.88862559 C22.9720379,10.9535545 23.8848341,11.3592417 24.8483412,11.3592417 C25.5582938,11.3592417 26.4203791,11.1056872 26.4203791,10.2436019 C26.4203791,9.53364929 25.4061611,9.28009479 23.6819905,8.87440758 C22.3127962,8.57014218 20.892891,8.06303318 20.892891,6.54170616 C20.892891,4.31042654 22.8199052,3.70189573 24.6962085,3.70189573 C26.6232227,3.70189573 28.3981043,4.36113744 28.550237,6.49099526 L26.2682464,6.49099526 C26.2175355,5.57819905 25.5075829,5.32464455 24.6454976,5.32464455 C24.0876777,5.32464455 23.3270142,5.42606635 23.3270142,6.13601896 C23.3270142,6.99810427 24.6962085,7.09952607 26.0654028,7.45450237 C27.4853081,7.75876777 28.8545024,8.26587678 28.8545024,9.93933649 C28.8545024,12.2720379 26.8260664,12.9819905 24.8483412,12.9819905 C22.8199052,12.9819905 20.8421801,12.221327 20.7407583,9.88862559 L22.9720379,9.88862559 L22.9720379,9.88862559 Z" id="Shape"></path>
                <path d="M32.2014218,2.58625592 L29.7672986,2.58625592 L29.7672986,0.608530806 L32.2014218,0.608530806 L32.2014218,2.58625592 L32.2014218,2.58625592 Z M29.7672986,3.95545024 L32.2014218,3.95545024 L32.2014218,12.728436 L29.7672986,12.728436 L29.7672986,3.95545024 L29.7672986,3.95545024 Z" id="Shape"></path>
                <path d="M33.5706161,3.95545024 L35.8526066,3.95545024 L35.8526066,5.17251185 L35.9033175,5.17251185 C36.5118483,4.20900474 37.5767773,3.70189573 38.5909953,3.70189573 C41.1772512,3.70189573 41.785782,5.12180095 41.785782,7.30236967 L41.785782,12.728436 L39.3516588,12.728436 L39.3516588,7.75876777 C39.3516588,6.33886256 38.9459716,5.57819905 37.8303318,5.57819905 C36.5118483,5.57819905 35.9540284,6.28815166 35.9540284,8.11374408 L35.9540284,12.728436 L33.5199052,12.728436 L33.5199052,3.95545024 L33.5706161,3.95545024 Z" id="Shape"></path>
                <path d="M45.1327014,8.92511848 C45.1834123,10.4464455 45.9440758,11.1563981 47.3132701,11.1563981 C48.2767773,11.1563981 49.0881517,10.5478673 49.2402844,10.0407583 L51.3701422,10.0407583 C50.7109005,12.1199052 49.2402844,12.9819905 47.2625592,12.9819905 C44.4734597,12.9819905 42.8,11.0549763 42.8,8.36729858 C42.8,5.73033175 44.6255924,3.75260664 47.2625592,3.75260664 C50.2545024,3.75260664 51.6744076,6.28815166 51.5222749,8.97582938 L45.1327014,8.97582938 L45.1327014,8.92511848 Z M49.0374408,7.40379147 C48.8345972,6.18672986 48.2767773,5.52748815 47.1104265,5.52748815 C45.5890995,5.52748815 45.1327014,6.69383886 45.0819905,7.40379147 L49.0374408,7.40379147 L49.0374408,7.40379147 Z" id="Shape"></path>
                <path d="M54.4127962,9.88862559 C54.4127962,10.9535545 55.3255924,11.3592417 56.2890995,11.3592417 C56.9990521,11.3592417 57.8611374,11.1056872 57.8611374,10.2436019 C57.8611374,9.53364929 56.8469194,9.28009479 55.1227488,8.87440758 C53.7535545,8.57014218 52.3336493,8.06303318 52.3336493,6.54170616 C52.3336493,4.31042654 54.2606635,3.70189573 56.1369668,3.70189573 C58.063981,3.70189573 59.8388626,4.36113744 59.9909953,6.49099526 L57.7090047,6.49099526 C57.6582938,5.57819905 56.9483412,5.32464455 56.0862559,5.32464455 C55.528436,5.32464455 54.7677725,5.42606635 54.7677725,6.13601896 C54.7677725,6.99810427 56.1369668,7.09952607 57.5061611,7.45450237 C58.9260664,7.75876777 60.2952607,8.26587678 60.2952607,9.93933649 C60.2952607,12.2720379 58.2668246,12.9819905 56.2890995,12.9819905 C54.2606635,12.9819905 52.2829384,12.221327 52.1815166,9.88862559 L54.4127962,9.88862559 L54.4127962,9.88862559 Z" id="Shape"></path>
                <path d="M63.185782,9.88862559 C63.185782,10.9535545 64.0985782,11.3592417 65.0620853,11.3592417 C65.7720379,11.3592417 66.6341232,11.1056872 66.6341232,10.2436019 C66.6341232,9.53364929 65.6199052,9.28009479 63.8957346,8.87440758 C62.5265403,8.57014218 61.1066351,8.06303318 61.1066351,6.54170616 C61.1066351,4.31042654 63.0336493,3.70189573 64.9099526,3.70189573 C66.8369668,3.70189573 68.6118483,4.36113744 68.763981,6.49099526 L66.4819905,6.49099526 C66.4312796,5.57819905 65.721327,5.32464455 64.8592417,5.32464455 C64.3014218,5.32464455 63.5407583,5.42606635 63.5407583,6.13601896 C63.5407583,6.99810427 64.9099526,7.09952607 66.2791469,7.45450237 C67.6990521,7.75876777 69.0682464,8.26587678 69.0682464,9.93933649 C69.0682464,12.2720379 67.0398104,12.9819905 65.0620853,12.9819905 C63.0336493,12.9819905 61.0559242,12.221327 60.9545024,9.88862559 L63.185782,9.88862559 L63.185782,9.88862559 Z" id="Shape"></path>
                <path d="M76.5734597,8.67156398 C76.5734597,10.2943128 77.8412322,10.9028436 79.2611374,10.9028436 C80.1739336,10.9028436 81.6445498,10.6492891 81.6445498,9.38151659 C81.6445498,8.06303318 79.8189573,7.86018957 78.0440758,7.35308057 C76.2691943,6.89668246 74.4436019,6.18672986 74.4436019,3.90473934 C74.4436019,1.41990521 76.7763033,0.253554502 78.956872,0.253554502 C81.4924171,0.253554502 83.8251185,1.36919431 83.8251185,4.15829384 L81.2388626,4.15829384 C81.1374408,2.68767773 80.1232227,2.33270142 78.8554502,2.33270142 C77.9933649,2.33270142 77.0298578,2.68767773 77.0298578,3.70189573 C77.0298578,4.61469194 77.5876777,4.76682464 80.6303318,5.52748815 C81.4924171,5.73033175 84.2308057,6.28815166 84.2308057,9.07725118 C84.2308057,11.3085308 82.4559242,12.9819905 79.2104265,12.9819905 C76.5227488,12.9819905 74.0379147,11.6635071 74.0379147,8.67156398 L76.5734597,8.67156398 L76.5734597,8.67156398 Z" id="Shape"></path>
                <path d="M91.1781991,7.04881517 C91.0260664,6.08530806 90.4175355,5.52748815 89.4033175,5.52748815 C87.8819905,5.52748815 87.3241706,7.09952607 87.3241706,8.36729858 C87.3241706,9.63507109 87.8312796,11.1563981 89.3526066,11.1563981 C90.4682464,11.1563981 91.1274882,10.4464455 91.2796209,9.38151659 L93.6123223,9.38151659 C93.3080569,11.714218 91.6853081,12.9819905 89.4033175,12.9819905 C86.7663507,12.9819905 84.9914692,11.1056872 84.9914692,8.46872038 C84.9914692,5.73033175 86.614218,3.70189573 89.4540284,3.70189573 C91.5331754,3.70189573 93.4094787,4.76682464 93.5616114,7.04881517 L91.1781991,7.04881517 L91.1781991,7.04881517 Z" id="Shape"></path>
                <path d="M94.6265403,0.608530806 L97.0606635,0.608530806 L97.0606635,5.17251185 L97.1113744,5.17251185 C97.7199052,4.20900474 98.7848341,3.70189573 99.6976303,3.70189573 C102.283886,3.70189573 102.892417,5.12180095 102.892417,7.30236967 L102.892417,12.728436 L100.407583,12.728436 L100.407583,7.75876777 C100.407583,6.33886256 100.001896,5.57819905 98.8862559,5.57819905 C97.5677725,5.57819905 97.0099526,6.28815166 97.0099526,8.11374408 L97.0099526,12.728436 L94.5758294,12.728436 L94.5758294,0.608530806 L94.6265403,0.608530806 Z" id="Shape"></path>
                <path d="M108.419905,3.70189573 C111.209005,3.70189573 112.983886,5.52748815 112.983886,8.31658768 C112.983886,11.1056872 111.209005,12.9312796 108.419905,12.9312796 C105.681517,12.9312796 103.906635,11.1056872 103.906635,8.31658768 C103.906635,5.52748815 105.681517,3.70189573 108.419905,3.70189573 L108.419905,3.70189573 Z M108.419905,11.1563981 C110.042654,11.1563981 110.549763,9.73649289 110.549763,8.36729858 C110.549763,6.94739336 110.042654,5.52748815 108.419905,5.52748815 C106.797156,5.52748815 106.290047,6.94739336 106.290047,8.36729858 C106.290047,9.73649289 106.797156,11.1563981 108.419905,11.1563981 L108.419905,11.1563981 Z" id="Shape"></path>
                <path d="M118.308531,3.70189573 C121.09763,3.70189573 122.872512,5.52748815 122.872512,8.31658768 C122.872512,11.1056872 121.09763,12.9312796 118.308531,12.9312796 C115.570142,12.9312796 113.795261,11.1056872 113.795261,8.31658768 C113.74455,5.52748815 115.570142,3.70189573 118.308531,3.70189573 L118.308531,3.70189573 Z M118.308531,11.1563981 C119.93128,11.1563981 120.438389,9.73649289 120.438389,8.36729858 C120.438389,6.94739336 119.93128,5.52748815 118.308531,5.52748815 C116.685782,5.52748815 116.178673,6.94739336 116.178673,8.36729858 C116.178673,9.73649289 116.685782,11.1563981 118.308531,11.1563981 L118.308531,11.1563981 Z" id="Shape"></path>
                <polygon id="Shape" points="123.988152 0.608530806 126.422275 0.608530806 126.422275 12.728436 123.988152 12.728436"></polygon>
            </g>
        </g>
    </g>
</svg>